<svg xmlns="http://www.w3.org/2000/svg" xmlns:xlink="http://www.w3.org/1999/xlink" width="500" zoomAndPan="magnify" viewBox="0 0 375 374.999991" height="500" preserveAspectRatio="xMidYMid meet" version="1.0"><defs><clipPath id="aa5a41a347"><path d="M 177 146 L 297.644531 146 L 297.644531 171 L 177 171 Z M 177 146 " clip-rule="nonzero"/></clipPath><clipPath id="9ca00daa0c"><path d="M 261 195 L 278 195 L 278 211.496094 L 261 211.496094 Z M 261 195 " clip-rule="nonzero"/></clipPath><clipPath id="bf82f70c92"><path d="M 197 195 L 214 195 L 214 211.496094 L 197 211.496094 Z M 197 195 " clip-rule="nonzero"/></clipPath><clipPath id="7aa836d18f"><path d="M 179 85.496094 L 190 85.496094 L 190 151 L 179 151 Z M 179 85.496094 " clip-rule="nonzero"/></clipPath></defs><path fill="#ef225c" d="M 324.671875 44.101562 C 300.203125 19.640625 267.667969 6.195312 233.074219 6.195312 C 198.457031 6.195312 165.921875 19.640625 141.441406 44.101562 C 116.960938 68.542969 103.480469 101.074219 103.480469 135.664062 C 103.480469 165.730469 113.703125 194.210938 132.445312 217.222656 L 107.433594 242.214844 L 101.734375 236.523438 L 25.855469 312.320312 L 56.226562 342.667969 L 132.082031 266.871094 L 126.40625 261.175781 L 151.417969 236.183594 C 174.449219 254.929688 202.949219 265.125 233.039062 265.125 C 267.65625 265.125 300.191406 251.65625 324.671875 227.191406 C 375.203125 176.714844 375.203125 94.582031 324.671875 44.101562 Z M 310.6875 213.195312 C 289.945312 233.921875 262.386719 245.320312 233.039062 245.320312 C 203.714844 245.320312 176.160156 233.910156 155.417969 213.195312 C 134.695312 192.492188 123.277344 164.957031 123.277344 135.652344 C 123.277344 106.351562 134.695312 78.792969 155.429688 58.089844 C 176.148438 37.363281 203.703125 25.964844 233.050781 25.964844 C 262.375 25.964844 289.933594 37.375 310.675781 58.089844 C 353.46875 100.871094 353.46875 170.457031 310.6875 213.195312 Z M 310.6875 213.195312 " fill-opacity="1" fill-rule="nonzero"/><path fill="#ef225c" d="M 233.050781 40.714844 C 207.667969 40.714844 183.828125 50.605469 165.878906 68.519531 C 163.175781 71.222656 163.175781 75.621094 165.878906 78.320312 C 168.582031 81.023438 172.984375 81.023438 175.6875 78.320312 C 191.011719 63.007812 211.386719 54.589844 233.050781 54.589844 C 254.742188 54.589844 275.101562 63.007812 290.4375 78.320312 C 291.777344 79.683594 293.558594 80.347656 295.347656 80.347656 C 297.105469 80.347656 298.886719 79.683594 300.257812 78.320312 C 302.960938 75.621094 302.960938 71.222656 300.257812 68.519531 C 282.296875 50.605469 258.433594 40.714844 233.050781 40.714844 Z M 233.050781 40.714844 " fill-opacity="1" fill-rule="nonzero"/><path fill="#ef225c" d="M 8.0625 330.121094 C 0.316406 337.839844 0.316406 350.386719 8.0625 358.09375 L 10.417969 360.46875 C 18.164062 368.1875 30.699219 368.1875 38.433594 360.46875 L 48.863281 350.046875 L 18.492188 319.699219 Z M 8.0625 330.121094 " fill-opacity="1" fill-rule="nonzero"/><path fill="#ef225c" d="M 231.21875 121.648438 L 231.21875 124.203125 C 231.21875 124.566406 230.925781 124.847656 230.574219 124.847656 L 228.703125 124.847656 C 228.34375 124.847656 228.0625 124.566406 228.0625 124.203125 L 228.0625 121.648438 C 228.0625 121.296875 228.34375 121.011719 228.703125 121.011719 L 230.574219 121.011719 C 230.925781 121.011719 231.21875 121.296875 231.21875 121.648438 " fill-opacity="1" fill-rule="nonzero"/><path fill="#ef225c" d="M 230.574219 126.941406 L 228.703125 126.941406 C 228.34375 126.941406 228.0625 127.226562 228.0625 127.578125 L 228.0625 130.128906 C 228.0625 130.488281 228.34375 130.773438 228.703125 130.773438 L 230.574219 130.773438 C 230.925781 130.773438 231.21875 130.488281 231.21875 130.128906 L 231.21875 127.578125 C 231.21875 127.226562 230.925781 126.941406 230.574219 126.941406 " fill-opacity="1" fill-rule="nonzero"/><path fill="#ef225c" d="M 244.769531 130.460938 C 244.769531 130.964844 244.371094 131.371094 243.871094 131.371094 L 234.070312 131.371094 C 233.570312 131.371094 233.171875 130.964844 233.171875 130.460938 L 233.171875 121.320312 C 233.171875 120.828125 233.570312 120.421875 234.070312 120.421875 L 243.871094 120.421875 C 244.371094 120.421875 244.769531 120.828125 244.769531 121.320312 Z M 231.886719 124.203125 C 231.886719 124.9375 231.300781 125.523438 230.566406 125.523438 L 228.699219 125.523438 C 227.972656 125.523438 227.375 124.9375 227.375 124.203125 L 227.375 121.648438 C 227.375 120.925781 227.972656 120.328125 228.699219 120.328125 L 230.566406 120.328125 C 231.300781 120.328125 231.886719 120.925781 231.886719 121.648438 Z M 231.886719 130.128906 C 231.886719 130.859375 231.300781 131.449219 230.566406 131.449219 L 228.699219 131.449219 C 227.972656 131.449219 227.375 130.859375 227.375 130.128906 L 227.375 127.578125 C 227.375 126.851562 227.972656 126.261719 228.699219 126.261719 L 230.566406 126.261719 C 231.300781 126.261719 231.886719 126.851562 231.886719 127.578125 Z M 246.027344 118.554688 L 226.65625 118.554688 C 226.363281 118.554688 226.125 118.792969 226.125 119.078125 L 226.125 132.710938 C 226.125 132.992188 226.363281 133.230469 226.65625 133.230469 L 246.027344 133.230469 C 246.320312 133.230469 246.546875 132.992188 246.546875 132.710938 L 246.546875 119.078125 C 246.546875 118.792969 246.320312 118.554688 246.027344 118.554688 " fill-opacity="1" fill-rule="nonzero"/><path fill="#ef225c" d="M 237.804688 134.246094 L 237.804688 144.8125 L 234.875 144.8125 L 234.875 134.246094 L 237.804688 134.246094 " fill-opacity="1" fill-rule="nonzero"/><path fill="#ef225c" d="M 199.910156 139.683594 C 198.386719 138.808594 196.558594 138.472656 194.707031 138.867188 C 190.707031 139.710938 188.148438 143.644531 189 147.648438 C 189.84375 151.660156 193.78125 154.210938 197.769531 153.363281 C 201.773438 152.511719 204.320312 148.582031 203.476562 144.570312 C 203.449219 144.4375 203.421875 144.304688 203.371094 144.167969 C 203.316406 144.351562 203.140625 144.476562 202.953125 144.484375 C 202.75 144.523438 202.550781 144.371094 202.484375 144.175781 C 201.925781 142.730469 201.007812 141.449219 199.800781 140.488281 C 199.640625 140.359375 199.582031 140.140625 199.660156 139.949219 C 199.695312 139.824219 199.792969 139.730469 199.910156 139.683594 " fill-opacity="1" fill-rule="nonzero"/><path fill="#ef225c" d="M 212.753906 145.023438 C 209.019531 145.820312 205.96875 148.824219 205.316406 152.828125 C 205.261719 153.152344 205.246094 153.46875 205.265625 153.777344 C 205.316406 154.515625 205.847656 155.121094 206.535156 155.371094 C 208.222656 155.976562 210 156.304688 211.804688 156.320312 C 212.527344 151.375 216.785156 147.554688 221.925781 147.554688 L 230.609375 147.554688 L 230.609375 147.515625 L 216.289062 144.933594 C 215.082031 144.746094 213.882812 144.78125 212.753906 145.023438 " fill-opacity="1" fill-rule="nonzero"/><path fill="#ef225c" d="M 218.28125 156.332031 L 230.609375 156.332031 L 230.609375 153.835938 C 230.300781 153.773438 229.980469 153.730469 229.652344 153.730469 L 222.300781 153.730469 C 220.507812 153.730469 218.96875 154.796875 218.28125 156.332031 " fill-opacity="1" fill-rule="nonzero"/><path fill="#ef225c" d="M 244.980469 153.730469 C 243.171875 153.730469 241.613281 154.796875 240.863281 156.332031 L 256.277344 156.332031 C 255.511719 154.796875 253.929688 153.730469 252.09375 153.730469 L 244.980469 153.730469 " fill-opacity="1" fill-rule="nonzero"/><path fill="#ef225c" d="M 252.714844 147.554688 C 257.855469 147.554688 262.117188 151.375 262.832031 156.332031 L 284.003906 156.332031 L 284.003906 155.535156 C 284.003906 150.171875 281.597656 145.054688 274.898438 147.433594 C 272.285156 148.65625 270.082031 150.796875 267.480469 150.03125 C 252.199219 145.511719 237.980469 146.375 235.1875 146.519531 C 234.746094 146.539062 234.410156 146.902344 234.398438 147.34375 C 234.398438 147.421875 234.410156 147.488281 234.429688 147.554688 L 252.714844 147.554688 " fill-opacity="1" fill-rule="nonzero"/><path fill="#ef225c" d="M 259.859375 165.050781 C 260.507812 165.050781 261.027344 164.527344 261.027344 163.878906 L 261.027344 157.796875 C 261.027344 153.199219 257.308594 149.472656 252.71875 149.472656 L 221.921875 149.472656 C 217.332031 149.472656 213.613281 153.199219 213.613281 157.796875 L 213.613281 163.878906 C 213.613281 164.527344 214.136719 165.050781 214.78125 165.050781 L 214.792969 165.050781 C 215.441406 165.050781 215.960938 164.527344 215.960938 163.878906 L 215.960938 158.164062 C 215.960938 154.65625 218.800781 151.816406 222.296875 151.816406 L 229.648438 151.816406 C 233.234375 151.816406 236.144531 154.726562 236.144531 158.328125 L 236.144531 163.878906 C 236.144531 164.527344 236.671875 165.050781 237.316406 165.050781 L 237.324219 165.050781 C 237.972656 165.050781 238.496094 164.527344 238.496094 163.878906 L 238.496094 158.328125 C 238.496094 154.730469 241.40625 151.816406 244.984375 151.816406 L 252.097656 151.816406 C 255.734375 151.816406 258.6875 154.773438 258.6875 158.421875 L 258.6875 163.878906 C 258.6875 164.527344 259.214844 165.050781 259.859375 165.050781 " fill-opacity="1" fill-rule="nonzero"/><g clip-path="url(#aa5a41a347)"><path fill="#ef225c" d="M 293.527344 147.015625 C 290.789062 146.742188 288.476562 148.890625 288.476562 151.570312 L 288.476562 158.246094 L 262.644531 158.246094 L 262.644531 163.878906 C 262.644531 165.601562 261.074219 166.964844 259.300781 166.609375 C 257.984375 166.351562 257.074219 165.105469 257.074219 163.753906 L 257.074219 158.257812 C 257.074219 158.257812 257.074219 158.257812 257.0625 158.246094 L 240.117188 158.246094 L 240.117188 163.878906 C 240.117188 165.414062 238.863281 166.667969 237.328125 166.667969 C 235.78125 166.667969 234.527344 165.414062 234.527344 163.878906 L 234.527344 158.246094 L 217.582031 158.246094 L 217.582031 163.878906 C 217.582031 165.414062 216.328125 166.667969 214.792969 166.667969 C 213.246094 166.667969 212 165.414062 212 163.878906 L 212 158.246094 C 207.902344 158.246094 203.925781 156.847656 200.742188 154.277344 C 199.945312 154.71875 199.085938 155.042969 198.171875 155.238281 C 197.523438 155.378906 196.871094 155.445312 196.242188 155.445312 C 192.132812 155.445312 188.429688 152.707031 187.289062 148.667969 C 183.375 149.3125 179.78125 151.851562 178.03125 155.898438 C 177.351562 157.441406 177.007812 159.113281 177.007812 160.8125 C 177 165.96875 181.164062 170.160156 186.332031 170.160156 L 294.277344 170.160156 C 296.132812 170.160156 297.636719 168.644531 297.636719 166.785156 L 297.636719 151.785156 C 297.636719 149.386719 295.902344 147.25 293.527344 147.015625 " fill-opacity="1" fill-rule="nonzero"/></g><path fill="#ef225c" d="M 202.839844 171.777344 L 202.839844 194.023438 C 203.699219 193.765625 204.59375 193.636719 205.53125 193.636719 C 206.46875 193.636719 207.371094 193.765625 208.226562 194.023438 L 208.226562 185.679688 L 266.417969 185.679688 L 266.417969 194.023438 C 267.277344 193.765625 268.171875 193.636719 269.109375 193.636719 C 270.050781 193.636719 270.953125 193.765625 271.804688 194.023438 L 271.804688 171.777344 L 266.417969 171.777344 L 266.417969 180.285156 L 208.226562 180.285156 L 208.226562 171.777344 L 202.839844 171.777344 " fill-opacity="1" fill-rule="nonzero"/><g clip-path="url(#9ca00daa0c)"><path fill="#ef225c" d="M 269.109375 206.097656 C 267.613281 206.097656 266.394531 204.878906 266.394531 203.375 C 266.394531 201.871094 267.613281 200.652344 269.109375 200.652344 C 270.609375 200.652344 271.832031 201.871094 271.832031 203.375 C 271.832031 204.878906 270.609375 206.097656 269.109375 206.097656 Z M 269.109375 195.257812 C 264.644531 195.257812 261.007812 198.898438 261.007812 203.375 C 261.007812 207.851562 264.644531 211.496094 269.109375 211.496094 C 273.582031 211.496094 277.21875 207.851562 277.21875 203.375 C 277.21875 198.898438 273.582031 195.257812 269.109375 195.257812 " fill-opacity="1" fill-rule="nonzero"/></g><g clip-path="url(#bf82f70c92)"><path fill="#ef225c" d="M 205.53125 206.097656 C 204.03125 206.097656 202.816406 204.878906 202.816406 203.375 C 202.816406 201.871094 204.03125 200.652344 205.53125 200.652344 C 207.03125 200.652344 208.25 201.871094 208.25 203.375 C 208.25 204.878906 207.03125 206.097656 205.53125 206.097656 Z M 205.53125 195.257812 C 201.0625 195.257812 197.425781 198.898438 197.425781 203.375 C 197.425781 207.851562 201.0625 211.496094 205.53125 211.496094 C 210.003906 211.496094 213.636719 207.851562 213.636719 203.375 C 213.636719 198.898438 210.003906 195.257812 205.53125 195.257812 " fill-opacity="1" fill-rule="nonzero"/></g><g clip-path="url(#7aa836d18f)"><path fill="#ef225c" d="M 181.90625 96.132812 L 186.65625 96.132812 C 186.808594 97.636719 187.691406 98.929688 188.933594 99.660156 C 189.03125 99.390625 189.175781 99.0625 189.394531 98.824219 C 188.308594 98.175781 187.578125 96.980469 187.585938 95.625 C 187.585938 95.367188 187.363281 95.171875 187.105469 95.171875 L 181.90625 95.171875 L 181.90625 86.566406 C 181.90625 85.976562 181.425781 85.492188 180.835938 85.492188 C 180.242188 85.492188 179.761719 85.976562 179.761719 86.566406 L 179.761719 150.25 C 180.425781 149.648438 181.144531 149.105469 181.90625 148.648438 L 181.90625 96.132812 " fill-opacity="1" fill-rule="nonzero"/></g><path fill="#ef225c" d="M 207.59375 140.390625 C 209.679688 140.785156 210.890625 142.375 211.441406 143.382812 C 211.683594 143.308594 211.921875 143.242188 212.171875 143.195312 C 211.589844 142.078125 210.234375 140.152344 207.71875 139.683594 C 205.285156 139.238281 204.011719 139.917969 203.4375 140.421875 C 203.179688 140.171875 202.855469 139.988281 202.484375 139.910156 C 201.984375 139.816406 200.644531 140.132812 200.097656 140.113281 C 201.34375 141.113281 202.328125 142.441406 202.921875 144.007812 C 203.066406 143.488281 203.9375 142.550781 204.003906 142.058594 C 204.0625 141.695312 203.992188 141.328125 203.851562 141.011719 C 204.242188 140.640625 205.300781 139.96875 207.59375 140.390625 " fill-opacity="1" fill-rule="nonzero"/><path fill="#ef225c" d="M 188.257812 106.910156 C 188.257812 106.910156 188.253906 106.910156 188.253906 106.914062 L 188.253906 107.519531 C 188.253906 107.519531 188.253906 107.523438 188.257812 107.523438 L 188.691406 107.523438 C 188.824219 107.523438 188.949219 107.613281 188.96875 107.746094 C 188.992188 107.90625 188.867188 108.050781 188.710938 108.050781 L 188.257812 108.050781 C 188.253906 108.050781 188.253906 108.054688 188.253906 108.054688 L 188.253906 108.710938 C 188.253906 108.714844 188.253906 108.714844 188.257812 108.714844 L 189.160156 108.714844 C 189.332031 108.714844 189.496094 108.84375 189.511719 109.015625 C 189.527344 109.210938 189.371094 109.375 189.183594 109.375 L 188.257812 109.375 C 188.253906 109.375 188.253906 109.375 188.253906 109.378906 L 188.253906 109.757812 C 188.253906 109.855469 188.265625 109.949219 188.285156 110.039062 C 188.285156 110.042969 188.289062 110.042969 188.289062 110.042969 L 188.691406 110.042969 C 188.824219 110.042969 188.949219 110.132812 188.96875 110.265625 C 188.992188 110.429688 188.867188 110.570312 188.710938 110.570312 L 188.5625 110.570312 C 188.609375 110.621094 188.65625 110.664062 188.710938 110.707031 C 189.507812 111.339844 190.464844 111.65625 191.421875 111.65625 C 192.382812 111.65625 193.339844 111.339844 194.140625 110.707031 C 194.429688 110.476562 194.597656 110.128906 194.597656 109.757812 L 194.597656 107.71875 C 194.597656 107.714844 194.59375 107.714844 194.589844 107.714844 C 191.28125 108.207031 189.015625 107.289062 188.257812 106.910156 " fill-opacity="1" fill-rule="nonzero"/><path fill="#ef225c" d="M 191.273438 100.304688 C 191.691406 100.304688 192.105469 100.242188 192.496094 100.128906 C 192.535156 100.261719 192.5625 100.40625 192.5625 100.550781 L 192.5625 100.625 C 192.5625 100.636719 192.554688 100.636719 192.554688 100.636719 L 190.289062 100.636719 L 190.289062 100.503906 C 190.289062 100.398438 190.304688 100.289062 190.324219 100.195312 C 190.628906 100.261719 190.945312 100.304688 191.273438 100.304688 Z M 193.492188 101.625 C 194.46875 101.625 195.253906 102.414062 195.253906 103.386719 L 195.253906 109.835938 C 195.253906 110.351562 195.023438 110.839844 194.621094 111.15625 C 192.753906 112.664062 190.121094 112.664062 188.246094 111.175781 C 187.988281 110.976562 187.796875 110.707031 187.691406 110.410156 C 187.691406 110.410156 187.691406 110.410156 187.699219 110.410156 L 188.707031 110.410156 C 188.765625 110.410156 188.8125 110.359375 188.8125 110.304688 C 188.8125 110.257812 188.765625 110.210938 188.707031 110.210938 L 187.640625 110.210938 C 187.632812 110.210938 187.632812 110.210938 187.632812 110.210938 C 187.605469 110.082031 187.59375 109.960938 187.59375 109.835938 L 187.59375 109.210938 L 189.183594 109.210938 C 189.269531 109.210938 189.347656 109.136719 189.347656 109.046875 C 189.347656 108.953125 189.269531 108.886719 189.183594 108.886719 L 187.59375 108.886719 L 187.59375 107.886719 L 188.707031 107.886719 C 188.765625 107.886719 188.8125 107.839844 188.8125 107.78125 C 188.8125 107.734375 188.765625 107.6875 188.707031 107.6875 L 187.59375 107.6875 L 187.59375 106.699219 C 187.59375 106.691406 187.59375 106.691406 187.59375 106.691406 L 189.183594 106.691406 C 189.269531 106.691406 189.347656 106.609375 189.347656 106.523438 C 189.347656 106.429688 189.269531 106.363281 189.183594 106.363281 L 187.59375 106.363281 L 187.59375 105.367188 L 188.707031 105.367188 C 188.765625 105.367188 188.8125 105.320312 188.8125 105.261719 C 188.8125 105.210938 188.765625 105.164062 188.707031 105.164062 L 187.59375 105.164062 L 187.59375 104.179688 C 187.59375 104.164062 187.59375 104.164062 187.59375 104.164062 L 189.183594 104.164062 C 189.269531 104.164062 189.347656 104.089844 189.347656 104.003906 C 189.347656 103.910156 189.269531 103.84375 189.183594 103.84375 L 187.59375 103.84375 C 187.59375 103.84375 187.59375 103.84375 187.59375 103.832031 L 187.59375 103.386719 C 187.59375 102.414062 188.378906 101.625 189.355469 101.625 Z M 189.296875 100.503906 L 189.296875 100.636719 C 187.816406 100.667969 186.609375 101.882812 186.609375 103.378906 L 186.609375 109.835938 C 186.609375 110.648438 186.972656 111.425781 187.613281 111.9375 C 188.5625 112.703125 189.730469 113.152344 190.945312 113.257812 L 190.945312 113.683594 C 190.945312 114.589844 191.683594 115.339844 192.59375 115.339844 C 192.964844 115.339844 193.265625 115.636719 193.265625 116.011719 L 193.28125 116.511719 C 193.339844 117.921875 193.585938 119.304688 194.039062 120.632812 C 195.40625 124.738281 198.816406 131.855469 206.117188 132.085938 C 213.800781 132.335938 219.199219 140.59375 221.015625 143.832031 L 222.222656 144.054688 C 220.726562 141.234375 214.910156 131.40625 206.152344 131.125 C 199.160156 130.90625 196 123.742188 194.8125 119.921875 C 194.429688 118.714844 194.25 117.457031 194.25 116.203125 L 194.25 116 C 194.25 115.09375 193.5 114.351562 192.59375 114.351562 C 192.226562 114.351562 191.929688 114.046875 191.929688 113.683594 L 191.929688 113.265625 C 191.929688 113.246094 191.929688 113.246094 191.929688 113.246094 C 193.136719 113.152344 194.296875 112.695312 195.242188 111.925781 C 195.878906 111.417969 196.242188 110.648438 196.242188 109.835938 L 196.242188 103.378906 C 196.242188 101.882812 195.035156 100.667969 193.550781 100.636719 C 193.550781 100.636719 193.550781 100.636719 193.550781 100.625 L 193.550781 100.570312 C 193.550781 100.304688 193.5 100.035156 193.40625 99.78125 C 194.902344 99.007812 195.914062 97.441406 195.914062 95.648438 C 195.914062 95.394531 195.707031 95.171875 195.4375 95.171875 C 195.167969 95.171875 194.957031 95.394531 194.957031 95.648438 C 194.957031 97.097656 194.117188 98.363281 192.890625 98.96875 C 192.648438 98.726562 192.351562 98.558594 192.011719 98.457031 C 191.175781 98.242188 190.382812 98.515625 189.867188 99.0625 C 189.652344 99.296875 189.484375 99.582031 189.382812 99.886719 C 189.328125 100.082031 189.296875 100.289062 189.296875 100.503906 " fill-opacity="1" fill-rule="nonzero"/><path fill="#ef225c" d="M 192.53125 107.289062 C 193.238281 107.285156 193.832031 106.714844 193.808594 106.007812 C 193.792969 105.488281 192.953125 104.445312 192.640625 104.003906 C 192.585938 103.929688 192.472656 103.929688 192.417969 104.003906 C 192.105469 104.445312 191.269531 105.488281 191.25 106.007812 C 191.230469 106.714844 191.824219 107.285156 192.53125 107.289062 " fill-opacity="1" fill-rule="nonzero"/><path fill="#ef225c" d="M 194.027344 106 C 194.035156 106.21875 193.988281 106.433594 193.902344 106.632812 C 193.898438 106.636719 193.902344 106.640625 193.90625 106.640625 C 194.324219 106.425781 194.613281 105.996094 194.597656 105.5 C 194.578125 104.980469 193.742188 103.941406 193.429688 103.5 C 193.375 103.417969 193.261719 103.417969 193.207031 103.5 C 193.121094 103.613281 193.003906 103.769531 192.875 103.949219 C 192.875 103.953125 192.875 103.953125 192.875 103.953125 C 192.917969 104.011719 192.960938 104.074219 193.011719 104.140625 C 193.539062 104.855469 194.011719 105.535156 194.027344 106 " fill-opacity="1" fill-rule="nonzero"/><path fill="#ef225c" d="M 242.410156 129.007812 C 242.300781 129.007812 242.207031 128.929688 242.179688 128.828125 L 241.058594 124.292969 L 240.734375 126.703125 C 240.714844 126.820312 240.617188 126.90625 240.496094 126.90625 L 239.71875 126.90625 C 239.613281 126.90625 239.523438 126.839844 239.488281 126.738281 L 239.070312 125.339844 L 238.566406 126.75 C 238.53125 126.84375 238.445312 126.90625 238.34375 126.90625 L 237.597656 126.90625 L 236.941406 128.273438 C 236.898438 128.363281 236.808594 128.414062 236.699219 128.402344 C 236.59375 128.390625 236.511719 128.316406 236.492188 128.214844 L 235.792969 124.726562 L 235.226562 126.734375 C 235.199219 126.839844 235.105469 126.90625 235 126.90625 L 233.972656 126.90625 C 233.84375 126.90625 233.738281 126.800781 233.738281 126.671875 C 233.738281 126.535156 233.84375 126.429688 233.972656 126.429688 L 234.816406 126.429688 L 235.597656 123.640625 C 235.628906 123.539062 235.722656 123.464844 235.832031 123.464844 C 235.832031 123.464844 235.835938 123.464844 235.839844 123.464844 C 235.949219 123.46875 236.042969 123.550781 236.0625 123.65625 L 236.820312 127.417969 L 237.230469 126.5625 C 237.269531 126.480469 237.351562 126.429688 237.445312 126.429688 L 238.171875 126.429688 L 238.871094 124.488281 C 238.90625 124.390625 238.992188 124.335938 239.105469 124.332031 C 239.207031 124.335938 239.296875 124.402344 239.324219 124.5 L 239.894531 126.429688 L 240.285156 126.429688 L 240.75 122.980469 C 240.765625 122.867188 240.859375 122.777344 240.972656 122.769531 C 241.09375 122.773438 241.195312 122.84375 241.222656 122.953125 L 242.367188 127.597656 L 242.535156 126.628906 C 242.554688 126.511719 242.652344 126.429688 242.769531 126.429688 L 243.96875 126.429688 C 244.097656 126.429688 244.207031 126.535156 244.207031 126.671875 C 244.207031 126.800781 244.097656 126.90625 243.96875 126.90625 L 242.972656 126.90625 L 242.648438 128.808594 C 242.628906 128.921875 242.535156 129 242.417969 129.007812 C 242.414062 129.007812 242.414062 129.007812 242.410156 129.007812 " fill-opacity="1" fill-rule="nonzero"/></svg>