<svg xmlns="http://www.w3.org/2000/svg" xmlns:xlink="http://www.w3.org/1999/xlink" width="500" zoomAndPan="magnify" viewBox="0 0 375 374.999991" height="500" preserveAspectRatio="xMidYMid meet" version="1.0"><defs><g/></defs><g fill="#ef225c" fill-opacity="1"><g transform="translate(23.425784, 199.874987)"><g><path d="M 26.71875 -0.03125 L 22.140625 -0.03125 L 22.140625 -16.890625 C 22.140625 -17.210938 22.191406 -18.03125 22.296875 -19.34375 C 22.234375 -19.164062 22.148438 -18.910156 22.046875 -18.578125 C 21.941406 -18.253906 21.84375 -17.953125 21.75 -17.671875 C 21.664062 -17.398438 21.578125 -17.140625 21.484375 -16.890625 L 15.40625 0 L 12.890625 0 L 6.625 -16.890625 C 6.539062 -17.140625 6.453125 -17.398438 6.359375 -17.671875 C 6.265625 -17.953125 6.164062 -18.253906 6.0625 -18.578125 C 5.96875 -18.910156 5.882812 -19.164062 5.8125 -19.34375 C 5.8125 -19.144531 5.835938 -18.757812 5.890625 -18.1875 C 5.953125 -17.625 5.984375 -17.191406 5.984375 -16.890625 L 5.984375 -0.03125 L 2.28125 -0.03125 L 2.28125 -22.8125 C 2.28125 -22.832031 2.238281 -23 2.15625 -23.3125 C 2.082031 -23.632812 2.003906 -23.960938 1.921875 -24.296875 C 1.835938 -24.640625 1.796875 -24.835938 1.796875 -24.890625 L 8.328125 -24.890625 L 13.640625 -10.609375 C 13.890625 -9.929688 14.21875 -8.5625 14.625 -6.5 C 14.664062 -6.65625 14.78125 -7.222656 14.96875 -8.203125 C 15.164062 -9.191406 15.351562 -9.945312 15.53125 -10.46875 L 20.734375 -24.890625 L 26.71875 -24.890625 Z M 26.71875 -0.03125 "/></g></g></g><g fill="#ef225c" fill-opacity="1"><g transform="translate(51.914521, 199.874987)"><g><path d="M 17.40625 0 L 2.28125 0 L 2.28125 -22.8125 L 1.765625 -24.890625 L 17.40625 -24.890625 L 17.40625 -21.515625 L 6.9375 -21.515625 L 6.9375 -14.484375 L 14.953125 -14.484375 L 14.953125 -11.125 L 6.9375 -11.125 L 6.9375 -3.359375 L 17.40625 -3.359375 Z M 17.40625 0 "/></g></g></g><g fill="#ef225c" fill-opacity="1"><g transform="translate(70.57838, 199.874987)"><g><path d="M 23.125 -12.40625 C 23.125 -8.601562 21.957031 -5.546875 19.625 -3.234375 C 17.46875 -1.078125 14.632812 0 11.125 0 L 2.28125 0 L 2.28125 -22.8125 C 2.28125 -22.832031 2.191406 -23.164062 2.015625 -23.8125 C 1.847656 -24.457031 1.753906 -24.816406 1.734375 -24.890625 L 11.15625 -24.890625 C 14.894531 -24.890625 17.820312 -23.75 19.9375 -21.46875 C 22.0625 -19.1875 23.125 -16.164062 23.125 -12.40625 Z M 18.09375 -12.28125 C 18.09375 -13.90625 17.863281 -15.382812 17.40625 -16.71875 C 16.957031 -18.0625 16.171875 -19.195312 15.046875 -20.125 C 13.921875 -21.050781 12.519531 -21.515625 10.84375 -21.515625 L 6.96875 -21.515625 L 6.96875 -3.359375 L 10.90625 -3.359375 C 12.15625 -3.359375 13.253906 -3.601562 14.203125 -4.09375 C 15.160156 -4.582031 15.910156 -5.25 16.453125 -6.09375 C 16.992188 -6.945312 17.398438 -7.890625 17.671875 -8.921875 C 17.953125 -9.953125 18.09375 -11.070312 18.09375 -12.28125 Z M 18.09375 -12.28125 "/></g></g></g><g fill="#ef225c" fill-opacity="1"><g transform="translate(94.341658, 199.874987)"><g><path d="M 6.9375 0 L 2.25 0 L 2.25 -22.8125 C 2.25 -22.832031 2.207031 -23 2.125 -23.3125 C 2.039062 -23.632812 1.957031 -23.960938 1.875 -24.296875 C 1.800781 -24.640625 1.765625 -24.835938 1.765625 -24.890625 L 6.9375 -24.890625 Z M 6.9375 0 "/></g></g></g><g fill="#ef225c" fill-opacity="1"><g transform="translate(103.452619, 199.874987)"><g><path d="M 19.203125 -21.515625 L 12.203125 -21.515625 L 12.203125 0 L 7.34375 0 L 7.34375 -21.515625 L 0.4375 -21.515625 L 0.4375 -24.890625 L 19.203125 -24.890625 Z M 19.203125 -21.515625 "/></g></g></g><g fill="#ef225c" fill-opacity="1"><g transform="translate(123.102363, 199.874987)"><g><path d="M 20.984375 0 L 15.671875 0 L 8.765625 -11.078125 L 6.90625 -11.078125 L 6.90625 0 L 2.25 0 L 2.25 -22.8125 C 2.25 -22.851562 2.164062 -23.1875 2 -23.8125 C 1.84375 -24.4375 1.753906 -24.796875 1.734375 -24.890625 L 10.265625 -24.890625 C 12.785156 -24.890625 14.816406 -24.351562 16.359375 -23.28125 C 17.898438 -22.21875 18.671875 -20.488281 18.671875 -18.09375 C 18.671875 -16.6875 18.132812 -15.367188 17.0625 -14.140625 C 16 -12.921875 14.765625 -12.140625 13.359375 -11.796875 Z M 13.734375 -18.125 C 13.734375 -19.1875 13.359375 -20.007812 12.609375 -20.59375 C 11.859375 -21.1875 10.929688 -21.484375 9.828125 -21.484375 L 6.90625 -21.484375 L 6.90625 -14.421875 L 9.078125 -14.421875 C 12.179688 -14.421875 13.734375 -15.65625 13.734375 -18.125 Z M 13.734375 -18.125 "/></g></g></g><g fill="#ef225c" fill-opacity="1"><g transform="translate(143.194056, 199.874987)"><g><path d="M 21.390625 0 L 16.359375 0 L 13.90625 -7.140625 L 6.5625 -7.140625 L 4.015625 0 L 0.0625 0 L 8.875 -24.890625 L 12.578125 -24.890625 Z M 12.78125 -10.46875 C 11.695312 -13.800781 10.835938 -16.632812 10.203125 -18.96875 C 9.429688 -16.132812 8.601562 -13.300781 7.71875 -10.46875 Z M 12.78125 -10.46875 "/></g></g></g><g fill="#ef225c" fill-opacity="1"><g transform="translate(164.645593, 199.874987)"><g><path d="M 22.09375 0.171875 L 18.421875 0.171875 L 7.234375 -16.890625 C 6.472656 -18.097656 6 -18.859375 5.8125 -19.171875 C 5.945312 -17.679688 6.015625 -16.921875 6.015625 -16.890625 L 6.015625 0 L 2.25 0 L 2.25 -22.78125 C 2.25 -22.800781 2.207031 -22.96875 2.125 -23.28125 C 2.039062 -23.601562 1.957031 -23.929688 1.875 -24.265625 C 1.800781 -24.609375 1.765625 -24.804688 1.765625 -24.859375 L 7.34375 -24.859375 L 17.140625 -9.96875 C 17.472656 -9.46875 17.9375 -8.71875 18.53125 -7.71875 C 18.394531 -9.414062 18.328125 -10.289062 18.328125 -10.34375 L 18.328125 -24.859375 L 22.09375 -24.859375 Z M 22.09375 0.171875 "/></g></g></g><g fill="#ef225c" fill-opacity="1"><g transform="translate(188.918807, 199.874987)"><g><path d="M 16.859375 -7.3125 C 16.859375 -4.90625 16.015625 -3.015625 14.328125 -1.640625 C 12.640625 -0.273438 10.570312 0.40625 8.125 0.40625 C 5.019531 0.40625 2.359375 -0.25 0.140625 -1.5625 L 1.734375 -5.34375 C 3.503906 -3.6875 5.488281 -2.859375 7.6875 -2.859375 C 8.84375 -2.859375 9.832031 -3.175781 10.65625 -3.8125 C 11.488281 -4.445312 11.90625 -5.328125 11.90625 -6.453125 C 11.90625 -7.273438 11.628906 -8.003906 11.078125 -8.640625 C 10.535156 -9.273438 9.863281 -9.769531 9.0625 -10.125 C 8.257812 -10.488281 7.378906 -10.914062 6.421875 -11.40625 C 5.472656 -11.894531 4.59375 -12.390625 3.78125 -12.890625 C 2.976562 -13.390625 2.304688 -14.097656 1.765625 -15.015625 C 1.222656 -15.929688 0.953125 -16.988281 0.953125 -18.1875 C 0.953125 -20.519531 1.757812 -22.285156 3.375 -23.484375 C 5 -24.691406 7.160156 -25.296875 9.859375 -25.296875 C 10.878906 -25.296875 12.054688 -25.09375 13.390625 -24.6875 C 14.734375 -24.28125 15.753906 -23.800781 16.453125 -23.25 L 14.109375 -20.328125 C 12.835938 -21.460938 11.273438 -22.03125 9.421875 -22.03125 C 8.460938 -22.03125 7.640625 -21.78125 6.953125 -21.28125 C 6.265625 -20.78125 5.921875 -20.078125 5.921875 -19.171875 C 5.921875 -18.378906 6.191406 -17.679688 6.734375 -17.078125 C 7.273438 -16.484375 7.945312 -16.003906 8.75 -15.640625 C 9.5625 -15.273438 10.441406 -14.84375 11.390625 -14.34375 C 12.335938 -13.84375 13.210938 -13.335938 14.015625 -12.828125 C 14.828125 -12.316406 15.503906 -11.585938 16.046875 -10.640625 C 16.585938 -9.691406 16.859375 -8.582031 16.859375 -7.3125 Z M 16.859375 -7.3125 "/></g></g></g><g fill="#ef225c" fill-opacity="1"><g transform="translate(206.460802, 199.874987)"><g><path d="M 18.671875 -17.4375 C 18.671875 -14.988281 17.800781 -13.132812 16.0625 -11.875 C 14.332031 -10.625 12.207031 -10 9.6875 -10 L 6.90625 -10 L 6.90625 0 L 2.25 0 L 2.25 -22.8125 C 2.25 -22.851562 2.164062 -23.1875 2 -23.8125 C 1.84375 -24.4375 1.753906 -24.796875 1.734375 -24.890625 L 9.625 -24.890625 C 12.34375 -24.890625 14.53125 -24.304688 16.1875 -23.140625 C 17.84375 -21.972656 18.671875 -20.070312 18.671875 -17.4375 Z M 13.703125 -17.4375 C 13.703125 -18.707031 13.375 -19.703125 12.71875 -20.421875 C 12.0625 -21.148438 11.097656 -21.515625 9.828125 -21.515625 L 6.9375 -21.515625 L 6.9375 -13.296875 L 9.796875 -13.296875 C 11.015625 -13.296875 11.96875 -13.675781 12.65625 -14.4375 C 13.351562 -15.195312 13.703125 -16.195312 13.703125 -17.4375 Z M 13.703125 -17.4375 "/></g></g></g><g fill="#ef225c" fill-opacity="1"><g transform="translate(226.008557, 199.874987)"><g><path d="M 21.390625 0 L 16.359375 0 L 13.90625 -7.140625 L 6.5625 -7.140625 L 4.015625 0 L 0.0625 0 L 8.875 -24.890625 L 12.578125 -24.890625 Z M 12.78125 -10.46875 C 11.695312 -13.800781 10.835938 -16.632812 10.203125 -18.96875 C 9.429688 -16.132812 8.601562 -13.300781 7.71875 -10.46875 Z M 12.78125 -10.46875 "/></g></g></g><g fill="#ef225c" fill-opacity="1"><g transform="translate(247.460094, 199.874987)"><g><path d="M 20.984375 0 L 15.671875 0 L 8.765625 -11.078125 L 6.90625 -11.078125 L 6.90625 0 L 2.25 0 L 2.25 -22.8125 C 2.25 -22.851562 2.164062 -23.1875 2 -23.8125 C 1.84375 -24.4375 1.753906 -24.796875 1.734375 -24.890625 L 10.265625 -24.890625 C 12.785156 -24.890625 14.816406 -24.351562 16.359375 -23.28125 C 17.898438 -22.21875 18.671875 -20.488281 18.671875 -18.09375 C 18.671875 -16.6875 18.132812 -15.367188 17.0625 -14.140625 C 16 -12.921875 14.765625 -12.140625 13.359375 -11.796875 Z M 13.734375 -18.125 C 13.734375 -19.1875 13.359375 -20.007812 12.609375 -20.59375 C 11.859375 -21.1875 10.929688 -21.484375 9.828125 -21.484375 L 6.90625 -21.484375 L 6.90625 -14.421875 L 9.078125 -14.421875 C 12.179688 -14.421875 13.734375 -15.65625 13.734375 -18.125 Z M 13.734375 -18.125 "/></g></g></g><g fill="#ef225c" fill-opacity="1"><g transform="translate(267.551775, 199.874987)"><g><path d="M 17.40625 0 L 2.28125 0 L 2.28125 -22.8125 L 1.765625 -24.890625 L 17.40625 -24.890625 L 17.40625 -21.515625 L 6.9375 -21.515625 L 6.9375 -14.484375 L 14.953125 -14.484375 L 14.953125 -11.125 L 6.9375 -11.125 L 6.9375 -3.359375 L 17.40625 -3.359375 Z M 17.40625 0 "/></g></g></g><g fill="#ef225c" fill-opacity="1"><g transform="translate(286.215623, 199.874987)"><g><path d="M 22.09375 0.171875 L 18.421875 0.171875 L 7.234375 -16.890625 C 6.472656 -18.097656 6 -18.859375 5.8125 -19.171875 C 5.945312 -17.679688 6.015625 -16.921875 6.015625 -16.890625 L 6.015625 0 L 2.25 0 L 2.25 -22.78125 C 2.25 -22.800781 2.207031 -22.96875 2.125 -23.28125 C 2.039062 -23.601562 1.957031 -23.929688 1.875 -24.265625 C 1.800781 -24.609375 1.765625 -24.804688 1.765625 -24.859375 L 7.34375 -24.859375 L 17.140625 -9.96875 C 17.472656 -9.46875 17.9375 -8.71875 18.53125 -7.71875 C 18.394531 -9.414062 18.328125 -10.289062 18.328125 -10.34375 L 18.328125 -24.859375 L 22.09375 -24.859375 Z M 22.09375 0.171875 "/></g></g></g><g fill="#ef225c" fill-opacity="1"><g transform="translate(310.488837, 199.874987)"><g><path d="M 20.8125 -2.109375 C 19.382812 -1.222656 18.050781 -0.582031 16.8125 -0.1875 C 15.570312 0.207031 14.160156 0.40625 12.578125 0.40625 C 8.742188 0.40625 5.800781 -0.789062 3.75 -3.1875 C 1.707031 -5.59375 0.6875 -8.734375 0.6875 -12.609375 C 0.6875 -16.304688 1.757812 -19.351562 3.90625 -21.75 C 6.0625 -24.15625 8.960938 -25.359375 12.609375 -25.359375 C 14.015625 -25.359375 15.488281 -25.15625 17.03125 -24.75 C 18.570312 -24.34375 19.785156 -23.742188 20.671875 -22.953125 L 18.21875 -19.828125 C 17.613281 -20.503906 16.800781 -21.046875 15.78125 -21.453125 C 14.757812 -21.859375 13.757812 -22.0625 12.78125 -22.0625 C 11.101562 -22.0625 9.710938 -21.582031 8.609375 -20.625 C 7.515625 -19.675781 6.765625 -18.535156 6.359375 -17.203125 C 5.953125 -15.867188 5.75 -14.375 5.75 -12.71875 C 5.75 -11.625 5.890625 -10.515625 6.171875 -9.390625 C 6.453125 -8.273438 6.863281 -7.210938 7.40625 -6.203125 C 7.957031 -5.191406 8.707031 -4.367188 9.65625 -3.734375 C 10.601562 -3.097656 11.671875 -2.78125 12.859375 -2.78125 C 14.960938 -2.78125 16.898438 -3.632812 18.671875 -5.34375 Z M 20.8125 -2.109375 "/></g></g></g><g fill="#ef225c" fill-opacity="1"><g transform="translate(331.702406, 199.874987)"><g><path d="M 19.515625 -24.890625 L 12.140625 -11.328125 L 12.140625 0 L 7.609375 0 L 7.609375 -11.328125 L 0.34375 -24.890625 L 5.375 -24.890625 L 10.34375 -15.640625 L 15.4375 -24.890625 Z M 19.515625 -24.890625 "/></g></g></g></svg>