<svg xmlns="http://www.w3.org/2000/svg" xmlns:xlink="http://www.w3.org/1999/xlink" width="500" zoomAndPan="magnify" viewBox="0 0 375 374.999991" height="500" preserveAspectRatio="xMidYMid meet" version="1.0"><defs><g/><clipPath id="6fdcebedce"><path d="M 83.722656 159 L 122.722656 159 L 122.722656 168 L 83.722656 168 Z M 83.722656 159 " clip-rule="nonzero"/></clipPath><clipPath id="c4ef2be5dd"><path d="M 110 175 L 117 175 L 117 180.5625 L 110 180.5625 Z M 110 175 " clip-rule="nonzero"/></clipPath><clipPath id="7794b84ae6"><path d="M 90 175 L 96 175 L 96 180.5625 L 90 180.5625 Z M 90 175 " clip-rule="nonzero"/></clipPath><clipPath id="3fcbc077a9"><path d="M 84 140.0625 L 88 140.0625 L 88 161 L 84 161 Z M 84 140.0625 " clip-rule="nonzero"/></clipPath><clipPath id="a42e7a4191"><path d="M 39 120.734375 L 132 120.734375 L 132 214 L 39 214 Z M 39 120.734375 " clip-rule="nonzero"/></clipPath><clipPath id="87e6a03f58"><path d="M 32.214844 206 L 46 206 L 46 220 L 32.214844 220 Z M 32.214844 206 " clip-rule="nonzero"/></clipPath></defs><rect x="-37.5" width="450" fill="#ffffff" y="-37.499999" height="449.999989" fill-opacity="1"/><rect x="-37.5" width="450" fill="#ffffff" y="-37.499999" height="449.999989" fill-opacity="1"/><path fill="#ef225c" d="M 101.265625 151.683594 L 101.265625 152.503906 C 101.265625 152.621094 101.171875 152.710938 101.058594 152.710938 L 100.453125 152.710938 C 100.339844 152.710938 100.246094 152.621094 100.246094 152.503906 L 100.246094 151.683594 C 100.246094 151.570312 100.339844 151.480469 100.453125 151.480469 L 101.058594 151.480469 C 101.171875 151.480469 101.265625 151.570312 101.265625 151.683594 " fill-opacity="1" fill-rule="nonzero"/><path fill="#ef225c" d="M 101.058594 153.386719 L 100.453125 153.386719 C 100.339844 153.386719 100.246094 153.476562 100.246094 153.589844 L 100.246094 154.410156 C 100.246094 154.523438 100.339844 154.617188 100.453125 154.617188 L 101.058594 154.617188 C 101.171875 154.617188 101.265625 154.523438 101.265625 154.410156 L 101.265625 153.589844 C 101.265625 153.476562 101.171875 153.386719 101.058594 153.386719 " fill-opacity="1" fill-rule="nonzero"/><path fill="#ef225c" d="M 105.644531 154.515625 C 105.644531 154.675781 105.515625 154.808594 105.355469 154.808594 L 102.1875 154.808594 C 102.027344 154.808594 101.898438 154.675781 101.898438 154.515625 L 101.898438 151.578125 C 101.898438 151.417969 102.027344 151.289062 102.1875 151.289062 L 105.355469 151.289062 C 105.515625 151.289062 105.644531 151.417969 105.644531 151.578125 Z M 101.484375 152.503906 C 101.484375 152.738281 101.292969 152.929688 101.054688 152.929688 L 100.453125 152.929688 C 100.21875 152.929688 100.027344 152.738281 100.027344 152.503906 L 100.027344 151.683594 C 100.027344 151.449219 100.21875 151.257812 100.453125 151.257812 L 101.054688 151.257812 C 101.292969 151.257812 101.484375 151.449219 101.484375 151.683594 Z M 101.484375 154.410156 C 101.484375 154.644531 101.292969 154.832031 101.054688 154.832031 L 100.453125 154.832031 C 100.21875 154.832031 100.027344 154.644531 100.027344 154.410156 L 100.027344 153.589844 C 100.027344 153.355469 100.21875 153.167969 100.453125 153.167969 L 101.054688 153.167969 C 101.292969 153.167969 101.484375 153.355469 101.484375 153.589844 Z M 106.050781 150.6875 L 99.792969 150.6875 C 99.699219 150.6875 99.621094 150.765625 99.621094 150.855469 L 99.621094 155.238281 C 99.621094 155.328125 99.699219 155.40625 99.792969 155.40625 L 106.050781 155.40625 C 106.144531 155.40625 106.21875 155.328125 106.21875 155.238281 L 106.21875 150.855469 C 106.21875 150.765625 106.144531 150.6875 106.050781 150.6875 " fill-opacity="1" fill-rule="nonzero"/><path fill="#ef225c" d="M 103.394531 155.734375 L 103.394531 159.128906 L 102.449219 159.128906 L 102.449219 155.734375 L 103.394531 155.734375 " fill-opacity="1" fill-rule="nonzero"/><path fill="#ef225c" d="M 91.152344 157.480469 C 90.660156 157.199219 90.070312 157.089844 89.472656 157.21875 C 88.179688 157.488281 87.355469 158.753906 87.628906 160.039062 C 87.902344 161.328125 89.171875 162.148438 90.460938 161.878906 C 91.753906 161.601562 92.578125 160.339844 92.304688 159.050781 C 92.296875 159.007812 92.289062 158.964844 92.269531 158.921875 C 92.253906 158.980469 92.195312 159.019531 92.136719 159.023438 C 92.070312 159.035156 92.007812 158.988281 91.984375 158.925781 C 91.804688 158.460938 91.507812 158.046875 91.117188 157.738281 C 91.066406 157.699219 91.046875 157.625 91.074219 157.566406 C 91.082031 157.523438 91.117188 157.496094 91.152344 157.480469 " fill-opacity="1" fill-rule="nonzero"/><path fill="#ef225c" d="M 95.304688 159.195312 C 94.097656 159.453125 93.109375 160.417969 92.898438 161.703125 C 92.882812 161.808594 92.878906 161.910156 92.882812 162.011719 C 92.898438 162.246094 93.070312 162.441406 93.292969 162.523438 C 93.839844 162.71875 94.414062 162.824219 94.996094 162.828125 C 95.230469 161.238281 96.605469 160.011719 98.265625 160.011719 L 101.070312 160.011719 L 101.070312 159.996094 L 96.445312 159.167969 C 96.054688 159.105469 95.667969 159.117188 95.304688 159.195312 " fill-opacity="1" fill-rule="nonzero"/><path fill="#ef225c" d="M 97.085938 162.832031 L 101.070312 162.832031 L 101.070312 162.027344 C 100.972656 162.007812 100.867188 161.996094 100.761719 161.996094 L 98.386719 161.996094 C 97.808594 161.996094 97.308594 162.335938 97.085938 162.832031 " fill-opacity="1" fill-rule="nonzero"/><path fill="#ef225c" d="M 105.710938 161.996094 C 105.128906 161.996094 104.625 162.335938 104.382812 162.832031 L 109.363281 162.832031 C 109.113281 162.335938 108.605469 161.996094 108.011719 161.996094 L 105.710938 161.996094 " fill-opacity="1" fill-rule="nonzero"/><path fill="#ef225c" d="M 108.210938 160.011719 C 109.871094 160.011719 111.25 161.238281 111.480469 162.832031 L 118.320312 162.832031 L 118.320312 162.574219 C 118.320312 160.851562 117.542969 159.207031 115.378906 159.96875 C 114.53125 160.363281 113.820312 161.050781 112.980469 160.804688 C 108.042969 159.355469 103.453125 159.628906 102.550781 159.675781 C 102.40625 159.683594 102.296875 159.800781 102.292969 159.941406 C 102.292969 159.96875 102.296875 159.988281 102.304688 160.011719 L 108.210938 160.011719 " fill-opacity="1" fill-rule="nonzero"/><path fill="#ef225c" d="M 110.519531 165.632812 C 110.726562 165.632812 110.898438 165.464844 110.898438 165.257812 L 110.898438 163.300781 C 110.898438 161.824219 109.695312 160.628906 108.210938 160.628906 L 98.265625 160.628906 C 96.78125 160.628906 95.582031 161.824219 95.582031 163.300781 L 95.582031 165.257812 C 95.582031 165.464844 95.75 165.632812 95.957031 165.632812 L 95.960938 165.632812 C 96.171875 165.632812 96.339844 165.464844 96.339844 165.257812 L 96.339844 163.421875 C 96.339844 162.292969 97.253906 161.378906 98.386719 161.378906 L 100.757812 161.378906 C 101.917969 161.378906 102.859375 162.316406 102.859375 163.472656 L 102.859375 165.257812 C 102.859375 165.464844 103.027344 165.632812 103.238281 165.632812 C 103.449219 165.632812 103.617188 165.464844 103.617188 165.257812 L 103.617188 163.472656 C 103.617188 162.316406 104.558594 161.378906 105.714844 161.378906 L 108.011719 161.378906 C 109.1875 161.378906 110.140625 162.332031 110.140625 163.503906 L 110.140625 165.257812 C 110.140625 165.464844 110.3125 165.632812 110.519531 165.632812 " fill-opacity="1" fill-rule="nonzero"/><g clip-path="url(#6fdcebedce)"><path fill="#ef225c" d="M 121.394531 159.835938 C 120.511719 159.75 119.761719 160.4375 119.761719 161.300781 L 119.761719 163.445312 L 111.417969 163.445312 L 111.417969 165.257812 C 111.417969 165.8125 110.910156 166.25 110.339844 166.136719 C 109.914062 166.050781 109.617188 165.652344 109.617188 165.21875 L 109.617188 163.449219 C 109.617188 163.449219 109.617188 163.449219 109.613281 163.445312 L 104.140625 163.445312 L 104.140625 165.257812 C 104.140625 165.75 103.738281 166.152344 103.242188 166.152344 C 102.742188 166.152344 102.335938 165.75 102.335938 165.257812 L 102.335938 163.445312 L 96.863281 163.445312 L 96.863281 165.257812 C 96.863281 165.75 96.457031 166.152344 95.960938 166.152344 C 95.460938 166.152344 95.058594 165.75 95.058594 165.257812 L 95.058594 163.445312 C 93.734375 163.445312 92.449219 162.996094 91.421875 162.171875 C 91.164062 162.3125 90.886719 162.417969 90.59375 162.480469 C 90.382812 162.523438 90.171875 162.546875 89.96875 162.546875 C 88.640625 162.546875 87.445312 161.664062 87.078125 160.367188 C 85.8125 160.574219 84.652344 161.390625 84.085938 162.691406 C 83.867188 163.1875 83.753906 163.726562 83.753906 164.269531 C 83.753906 165.929688 85.097656 167.277344 86.765625 167.277344 L 121.636719 167.277344 C 122.238281 167.277344 122.722656 166.789062 122.722656 166.191406 L 122.722656 161.371094 C 122.722656 160.597656 122.160156 159.914062 121.394531 159.835938 " fill-opacity="1" fill-rule="nonzero"/></g><path fill="#ef225c" d="M 92.097656 167.796875 L 92.097656 174.945312 C 92.375 174.863281 92.664062 174.820312 92.96875 174.820312 C 93.273438 174.820312 93.5625 174.863281 93.839844 174.945312 L 93.839844 172.265625 L 112.636719 172.265625 L 112.636719 174.945312 C 112.914062 174.863281 113.203125 174.820312 113.507812 174.820312 C 113.8125 174.820312 114.101562 174.863281 114.378906 174.945312 L 114.378906 167.796875 L 112.636719 167.796875 L 112.636719 170.53125 L 93.839844 170.53125 L 93.839844 167.796875 L 92.097656 167.796875 " fill-opacity="1" fill-rule="nonzero"/><g clip-path="url(#c4ef2be5dd)"><path fill="#ef225c" d="M 113.507812 178.828125 C 113.023438 178.828125 112.628906 178.4375 112.628906 177.953125 C 112.628906 177.46875 113.023438 177.078125 113.507812 177.078125 C 113.992188 177.078125 114.386719 177.46875 114.386719 177.953125 C 114.386719 178.4375 113.992188 178.828125 113.507812 178.828125 Z M 113.507812 175.34375 C 112.066406 175.34375 110.890625 176.511719 110.890625 177.953125 C 110.890625 179.390625 112.066406 180.5625 113.507812 180.5625 C 114.953125 180.5625 116.125 179.390625 116.125 177.953125 C 116.125 176.511719 114.953125 175.34375 113.507812 175.34375 " fill-opacity="1" fill-rule="nonzero"/></g><g clip-path="url(#7794b84ae6)"><path fill="#ef225c" d="M 92.96875 178.828125 C 92.484375 178.828125 92.089844 178.4375 92.089844 177.953125 C 92.089844 177.46875 92.484375 177.078125 92.96875 177.078125 C 93.453125 177.078125 93.847656 177.46875 93.847656 177.953125 C 93.847656 178.4375 93.453125 178.828125 92.96875 178.828125 Z M 92.96875 175.34375 C 91.527344 175.34375 90.351562 176.511719 90.351562 177.953125 C 90.351562 179.390625 91.527344 180.5625 92.96875 180.5625 C 94.414062 180.5625 95.589844 179.390625 95.589844 177.953125 C 95.589844 176.511719 94.414062 175.34375 92.96875 175.34375 " fill-opacity="1" fill-rule="nonzero"/></g><g clip-path="url(#3fcbc077a9)"><path fill="#ef225c" d="M 85.339844 143.480469 L 86.871094 143.480469 C 86.921875 143.964844 87.207031 144.378906 87.609375 144.613281 C 87.636719 144.527344 87.683594 144.421875 87.757812 144.347656 C 87.40625 144.140625 87.167969 143.753906 87.171875 143.320312 C 87.171875 143.234375 87.097656 143.171875 87.015625 143.171875 L 85.339844 143.171875 L 85.339844 140.40625 C 85.339844 140.21875 85.183594 140.0625 84.992188 140.0625 C 84.800781 140.0625 84.644531 140.21875 84.644531 140.40625 L 84.644531 160.875 C 84.859375 160.683594 85.089844 160.507812 85.339844 160.363281 L 85.339844 143.480469 " fill-opacity="1" fill-rule="nonzero"/></g><path fill="#ef225c" d="M 93.636719 157.707031 C 94.308594 157.832031 94.699219 158.34375 94.878906 158.667969 C 94.957031 158.644531 95.035156 158.625 95.113281 158.609375 C 94.925781 158.25 94.488281 157.628906 93.675781 157.480469 C 92.890625 157.335938 92.480469 157.554688 92.292969 157.71875 C 92.210938 157.636719 92.105469 157.578125 91.984375 157.554688 C 91.824219 157.523438 91.390625 157.625 91.214844 157.617188 C 91.617188 157.9375 91.933594 158.367188 92.125 158.871094 C 92.171875 158.703125 92.453125 158.402344 92.476562 158.242188 C 92.492188 158.128906 92.472656 158.007812 92.425781 157.90625 C 92.550781 157.789062 92.894531 157.570312 93.636719 157.707031 " fill-opacity="1" fill-rule="nonzero"/><path fill="#ef225c" d="M 87.390625 146.945312 C 87.390625 146.945312 87.386719 146.945312 87.386719 146.949219 L 87.386719 147.140625 C 87.386719 147.140625 87.386719 147.144531 87.390625 147.144531 L 87.527344 147.144531 C 87.570312 147.144531 87.613281 147.171875 87.621094 147.214844 C 87.625 147.265625 87.585938 147.3125 87.535156 147.3125 L 87.390625 147.3125 C 87.386719 147.3125 87.386719 147.3125 87.386719 147.3125 L 87.386719 147.523438 C 87.386719 147.527344 87.386719 147.527344 87.390625 147.527344 L 87.679688 147.527344 C 87.738281 147.527344 87.789062 147.566406 87.792969 147.621094 C 87.800781 147.683594 87.75 147.738281 87.6875 147.738281 L 87.390625 147.738281 C 87.386719 147.738281 87.386719 147.738281 87.386719 147.738281 L 87.386719 147.863281 C 87.386719 147.890625 87.390625 147.921875 87.398438 147.953125 L 87.527344 147.953125 C 87.570312 147.953125 87.613281 147.980469 87.621094 148.023438 C 87.625 148.078125 87.585938 148.121094 87.535156 148.121094 L 87.488281 148.121094 C 87.503906 148.136719 87.515625 148.152344 87.535156 148.167969 C 87.792969 148.371094 88.101562 148.472656 88.410156 148.472656 C 88.722656 148.472656 89.03125 148.371094 89.289062 148.167969 C 89.382812 148.09375 89.4375 147.980469 89.4375 147.863281 L 89.4375 147.207031 C 89.4375 147.203125 89.4375 147.203125 89.433594 147.203125 C 88.367188 147.363281 87.632812 147.066406 87.390625 146.945312 " fill-opacity="1" fill-rule="nonzero"/><path fill="#ef225c" d="M 88.363281 144.820312 C 88.5 144.820312 88.632812 144.804688 88.757812 144.765625 C 88.769531 144.808594 88.78125 144.855469 88.78125 144.902344 L 88.78125 144.925781 C 88.78125 144.929688 88.777344 144.929688 88.777344 144.929688 L 88.042969 144.929688 L 88.042969 144.886719 C 88.042969 144.851562 88.050781 144.816406 88.054688 144.789062 C 88.15625 144.808594 88.257812 144.820312 88.363281 144.820312 Z M 89.082031 145.246094 C 89.394531 145.246094 89.648438 145.5 89.648438 145.8125 L 89.648438 147.886719 C 89.648438 148.050781 89.574219 148.210938 89.445312 148.3125 C 88.84375 148.792969 87.992188 148.792969 87.386719 148.316406 C 87.300781 148.253906 87.238281 148.167969 87.207031 148.070312 C 87.207031 148.070312 87.207031 148.070312 87.210938 148.070312 L 87.535156 148.070312 C 87.554688 148.070312 87.566406 148.054688 87.566406 148.035156 C 87.566406 148.023438 87.554688 148.007812 87.535156 148.007812 L 87.191406 148.007812 C 87.1875 148.007812 87.1875 148.007812 87.1875 148.007812 C 87.179688 147.964844 87.175781 147.925781 87.175781 147.886719 L 87.175781 147.683594 L 87.6875 147.683594 C 87.714844 147.683594 87.742188 147.660156 87.742188 147.632812 C 87.742188 147.601562 87.714844 147.582031 87.6875 147.582031 L 87.175781 147.582031 L 87.175781 147.261719 L 87.535156 147.261719 C 87.554688 147.261719 87.566406 147.246094 87.566406 147.226562 C 87.566406 147.210938 87.554688 147.195312 87.535156 147.195312 L 87.175781 147.195312 L 87.175781 146.878906 C 87.175781 146.875 87.175781 146.875 87.175781 146.875 L 87.6875 146.875 C 87.714844 146.875 87.742188 146.851562 87.742188 146.820312 C 87.742188 146.792969 87.714844 146.769531 87.6875 146.769531 L 87.175781 146.769531 L 87.175781 146.449219 L 87.535156 146.449219 C 87.554688 146.449219 87.566406 146.433594 87.566406 146.414062 C 87.566406 146.398438 87.554688 146.386719 87.535156 146.386719 L 87.175781 146.386719 L 87.175781 146.066406 C 87.175781 146.0625 87.175781 146.0625 87.175781 146.0625 L 87.6875 146.0625 C 87.714844 146.0625 87.742188 146.039062 87.742188 146.011719 C 87.742188 145.980469 87.714844 145.960938 87.6875 145.960938 L 87.175781 145.960938 C 87.175781 145.960938 87.175781 145.960938 87.175781 145.957031 L 87.175781 145.8125 C 87.175781 145.5 87.429688 145.246094 87.742188 145.246094 Z M 87.726562 144.886719 L 87.726562 144.929688 C 87.246094 144.9375 86.855469 145.328125 86.855469 145.8125 L 86.855469 147.886719 C 86.855469 148.148438 86.972656 148.398438 87.179688 148.5625 C 87.488281 148.808594 87.863281 148.953125 88.257812 148.988281 L 88.257812 149.121094 C 88.257812 149.414062 88.496094 149.65625 88.789062 149.65625 C 88.910156 149.65625 89.007812 149.75 89.007812 149.871094 L 89.011719 150.03125 C 89.03125 150.484375 89.109375 150.929688 89.257812 151.355469 C 89.699219 152.675781 90.800781 154.964844 93.160156 155.039062 C 95.640625 155.117188 97.382812 157.773438 97.972656 158.8125 L 98.359375 158.886719 C 97.878906 157.980469 96 154.820312 93.167969 154.730469 C 90.910156 154.660156 89.890625 152.355469 89.507812 151.128906 C 89.382812 150.738281 89.324219 150.335938 89.324219 149.933594 L 89.324219 149.867188 C 89.324219 149.574219 89.082031 149.339844 88.789062 149.339844 C 88.671875 149.339844 88.574219 149.238281 88.574219 149.121094 L 88.574219 148.988281 C 88.574219 148.984375 88.574219 148.984375 88.574219 148.984375 C 88.964844 148.953125 89.339844 148.804688 89.644531 148.558594 C 89.851562 148.394531 89.96875 148.148438 89.96875 147.886719 L 89.96875 145.8125 C 89.96875 145.328125 89.578125 144.9375 89.097656 144.929688 C 89.097656 144.929688 89.097656 144.929688 89.097656 144.925781 L 89.097656 144.910156 C 89.097656 144.820312 89.082031 144.734375 89.050781 144.65625 C 89.535156 144.40625 89.863281 143.902344 89.863281 143.328125 C 89.863281 143.242188 89.792969 143.171875 89.707031 143.171875 C 89.621094 143.171875 89.554688 143.242188 89.554688 143.328125 C 89.554688 143.792969 89.28125 144.199219 88.886719 144.394531 C 88.808594 144.316406 88.710938 144.261719 88.601562 144.230469 C 88.332031 144.160156 88.074219 144.25 87.910156 144.421875 C 87.839844 144.5 87.785156 144.589844 87.753906 144.6875 C 87.734375 144.75 87.726562 144.816406 87.726562 144.886719 " fill-opacity="1" fill-rule="nonzero"/><path fill="#ef225c" d="M 88.769531 147.066406 C 88.996094 147.066406 89.191406 146.882812 89.183594 146.65625 C 89.175781 146.488281 88.90625 146.152344 88.804688 146.011719 C 88.789062 145.988281 88.75 145.988281 88.734375 146.011719 C 88.632812 146.152344 88.363281 146.488281 88.355469 146.65625 C 88.347656 146.882812 88.542969 147.066406 88.769531 147.066406 " fill-opacity="1" fill-rule="nonzero"/><path fill="#ef225c" d="M 89.253906 146.652344 C 89.253906 146.722656 89.242188 146.792969 89.210938 146.855469 C 89.210938 146.855469 89.210938 146.859375 89.214844 146.859375 C 89.347656 146.789062 89.441406 146.652344 89.4375 146.492188 C 89.429688 146.324219 89.160156 145.992188 89.058594 145.847656 C 89.042969 145.824219 89.003906 145.824219 88.988281 145.847656 C 88.960938 145.886719 88.921875 145.9375 88.878906 145.992188 C 88.878906 145.996094 88.878906 145.996094 88.878906 145.996094 C 88.894531 146.015625 88.910156 146.035156 88.925781 146.054688 C 89.09375 146.285156 89.25 146.503906 89.253906 146.652344 " fill-opacity="1" fill-rule="nonzero"/><path fill="#ef225c" d="M 104.882812 154.050781 C 104.847656 154.050781 104.816406 154.023438 104.808594 153.992188 L 104.445312 152.53125 L 104.339844 153.308594 C 104.335938 153.34375 104.304688 153.375 104.265625 153.375 L 104.011719 153.375 C 103.980469 153.375 103.949219 153.351562 103.9375 153.320312 L 103.804688 152.871094 L 103.640625 153.324219 C 103.628906 153.351562 103.601562 153.375 103.570312 153.375 L 103.328125 153.375 L 103.117188 153.8125 C 103.101562 153.84375 103.074219 153.859375 103.039062 153.855469 C 103.003906 153.851562 102.976562 153.828125 102.972656 153.792969 L 102.746094 152.671875 L 102.5625 153.316406 C 102.554688 153.351562 102.523438 153.375 102.488281 153.375 L 102.15625 153.375 C 102.113281 153.375 102.082031 153.339844 102.082031 153.296875 C 102.082031 153.253906 102.113281 153.21875 102.15625 153.21875 L 102.429688 153.21875 L 102.683594 152.324219 C 102.691406 152.289062 102.722656 152.265625 102.757812 152.265625 C 102.796875 152.269531 102.824219 152.292969 102.832031 152.328125 L 103.078125 153.539062 L 103.210938 153.261719 C 103.222656 153.234375 103.25 153.21875 103.277344 153.21875 L 103.511719 153.21875 L 103.738281 152.597656 C 103.75 152.566406 103.777344 152.546875 103.8125 152.546875 C 103.847656 152.546875 103.875 152.570312 103.886719 152.601562 L 104.070312 153.21875 L 104.195312 153.21875 L 104.347656 152.109375 C 104.351562 152.074219 104.382812 152.046875 104.417969 152.042969 C 104.457031 152.046875 104.488281 152.066406 104.5 152.101562 L 104.867188 153.59375 L 104.921875 153.285156 C 104.929688 153.246094 104.960938 153.21875 105 153.21875 L 105.386719 153.21875 C 105.429688 153.21875 105.460938 153.253906 105.460938 153.296875 C 105.460938 153.339844 105.429688 153.375 105.386719 153.375 L 105.0625 153.375 L 104.960938 153.984375 C 104.953125 154.019531 104.921875 154.046875 104.886719 154.050781 C 104.882812 154.050781 104.882812 154.050781 104.882812 154.050781 " fill-opacity="1" fill-rule="nonzero"/><g clip-path="url(#a42e7a4191)"><path fill="#ef225c" d="M 121.175781 131.242188 C 114.472656 124.519531 105.558594 120.824219 96.078125 120.824219 C 86.59375 120.824219 77.679688 124.519531 70.972656 131.242188 C 64.261719 137.957031 60.570312 146.898438 60.570312 156.402344 C 60.570312 164.664062 63.371094 172.492188 68.503906 178.816406 L 61.652344 185.683594 L 60.089844 184.117188 L 39.300781 204.949219 L 47.621094 213.289062 L 68.40625 192.457031 L 66.851562 190.894531 L 73.703125 184.027344 C 80.015625 189.175781 87.824219 191.980469 96.070312 191.980469 C 105.554688 191.980469 114.46875 188.277344 121.175781 181.554688 C 135.023438 167.683594 135.023438 145.113281 121.175781 131.242188 Z M 117.34375 177.707031 C 111.660156 183.40625 104.109375 186.535156 96.070312 186.535156 C 88.035156 186.535156 80.484375 183.402344 74.800781 177.707031 C 69.121094 172.019531 65.992188 164.453125 65.992188 156.398438 C 65.992188 148.347656 69.121094 140.773438 74.804688 135.085938 C 80.480469 129.390625 88.03125 126.257812 96.070312 126.257812 C 104.105469 126.257812 111.65625 129.390625 117.339844 135.085938 C 129.066406 146.84375 129.066406 165.964844 117.34375 177.707031 Z M 117.34375 177.707031 " fill-opacity="1" fill-rule="nonzero"/></g><path fill="#ef225c" d="M 96.070312 130.3125 C 89.117188 130.3125 82.585938 133.027344 77.667969 137.953125 C 76.925781 138.695312 76.925781 139.902344 77.667969 140.644531 C 78.40625 141.386719 79.613281 141.386719 80.355469 140.644531 C 84.554688 136.4375 90.136719 134.125 96.070312 134.125 C 102.015625 134.125 107.59375 136.4375 111.796875 140.644531 C 112.164062 141.019531 112.652344 141.203125 113.140625 141.203125 C 113.621094 141.203125 114.109375 141.019531 114.488281 140.644531 C 115.226562 139.902344 115.226562 138.695312 114.488281 137.953125 C 109.566406 133.027344 103.027344 130.3125 96.070312 130.3125 Z M 96.070312 130.3125 " fill-opacity="1" fill-rule="nonzero"/><g clip-path="url(#87e6a03f58)"><path fill="#ef225c" d="M 34.425781 209.839844 C 32.300781 211.960938 32.300781 215.410156 34.425781 217.527344 L 35.070312 218.179688 C 37.191406 220.300781 40.628906 220.300781 42.746094 218.179688 L 45.605469 215.316406 L 37.28125 206.976562 Z M 34.425781 209.839844 " fill-opacity="1" fill-rule="nonzero"/></g><g fill="#ef225c" fill-opacity="1"><g transform="translate(137.47419, 167.480423)"><g><path d="M 16.5 -0.015625 L 13.671875 -0.015625 L 13.671875 -10.4375 C 13.671875 -10.632812 13.707031 -11.140625 13.78125 -11.953125 C 13.738281 -11.835938 13.6875 -11.675781 13.625 -11.46875 C 13.5625 -11.269531 13.5 -11.085938 13.4375 -10.921875 C 13.382812 -10.753906 13.328125 -10.59375 13.265625 -10.4375 L 9.515625 0 L 7.953125 0 L 4.09375 -10.4375 C 4.039062 -10.59375 3.984375 -10.753906 3.921875 -10.921875 C 3.867188 -11.085938 3.8125 -11.269531 3.75 -11.46875 C 3.6875 -11.675781 3.632812 -11.835938 3.59375 -11.953125 C 3.59375 -11.828125 3.609375 -11.585938 3.640625 -11.234375 C 3.679688 -10.878906 3.703125 -10.613281 3.703125 -10.4375 L 3.703125 -0.015625 L 1.40625 -0.015625 L 1.40625 -14.09375 C 1.40625 -14.101562 1.378906 -14.207031 1.328125 -14.40625 C 1.285156 -14.601562 1.238281 -14.804688 1.1875 -15.015625 C 1.132812 -15.222656 1.109375 -15.34375 1.109375 -15.375 L 5.140625 -15.375 L 8.421875 -6.546875 C 8.578125 -6.128906 8.78125 -5.285156 9.03125 -4.015625 C 9.0625 -4.109375 9.132812 -4.457031 9.25 -5.0625 C 9.363281 -5.675781 9.476562 -6.144531 9.59375 -6.46875 L 12.8125 -15.375 L 16.5 -15.375 Z M 16.5 -0.015625 "/></g></g></g><g fill="#ef225c" fill-opacity="1"><g transform="translate(155.072261, 167.480423)"><g><path d="M 10.75 0 L 1.40625 0 L 1.40625 -14.09375 L 1.09375 -15.375 L 10.75 -15.375 L 10.75 -13.296875 L 4.28125 -13.296875 L 4.28125 -8.953125 L 9.234375 -8.953125 L 9.234375 -6.859375 L 4.28125 -6.859375 L 4.28125 -2.078125 L 10.75 -2.078125 Z M 10.75 0 "/></g></g></g><g fill="#ef225c" fill-opacity="1"><g transform="translate(166.601313, 167.480423)"><g><path d="M 14.28125 -7.671875 C 14.28125 -5.316406 13.554688 -3.425781 12.109375 -2 C 10.785156 -0.664062 9.035156 0 6.859375 0 L 1.40625 0 L 1.40625 -14.09375 C 1.40625 -14.101562 1.351562 -14.304688 1.25 -14.703125 C 1.144531 -15.109375 1.085938 -15.332031 1.078125 -15.375 L 6.890625 -15.375 C 9.203125 -15.375 11.007812 -14.671875 12.3125 -13.265625 C 13.625 -11.859375 14.28125 -9.992188 14.28125 -7.671875 Z M 11.171875 -7.578125 C 11.171875 -8.585938 11.03125 -9.503906 10.75 -10.328125 C 10.46875 -11.160156 9.976562 -11.863281 9.28125 -12.4375 C 8.59375 -13.007812 7.734375 -13.296875 6.703125 -13.296875 L 4.3125 -13.296875 L 4.3125 -2.078125 L 6.734375 -2.078125 C 7.503906 -2.078125 8.179688 -2.226562 8.765625 -2.53125 C 9.359375 -2.832031 9.820312 -3.242188 10.15625 -3.765625 C 10.5 -4.296875 10.753906 -4.878906 10.921875 -5.515625 C 11.085938 -6.148438 11.171875 -6.835938 11.171875 -7.578125 Z M 11.171875 -7.578125 "/></g></g></g><g fill="#ef225c" fill-opacity="1"><g transform="translate(181.280374, 167.480423)"><g><path d="M 4.28125 0 L 1.390625 0 L 1.390625 -14.09375 C 1.390625 -14.101562 1.363281 -14.207031 1.3125 -14.40625 C 1.257812 -14.601562 1.207031 -14.804688 1.15625 -15.015625 C 1.113281 -15.222656 1.09375 -15.34375 1.09375 -15.375 L 4.28125 -15.375 Z M 4.28125 0 "/></g></g></g><g fill="#ef225c" fill-opacity="1"><g transform="translate(186.908395, 167.480423)"><g><path d="M 11.859375 -13.296875 L 7.53125 -13.296875 L 7.53125 0 L 4.53125 0 L 4.53125 -13.296875 L 0.265625 -13.296875 L 0.265625 -15.375 L 11.859375 -15.375 Z M 11.859375 -13.296875 "/></g></g></g><g fill="#ef225c" fill-opacity="1"><g transform="translate(199.046444, 167.480423)"><g><path d="M 12.953125 0 L 9.6875 0 L 5.421875 -6.84375 L 4.265625 -6.84375 L 4.265625 0 L 1.390625 0 L 1.390625 -14.09375 C 1.390625 -14.125 1.335938 -14.328125 1.234375 -14.703125 C 1.140625 -15.085938 1.085938 -15.3125 1.078125 -15.375 L 6.34375 -15.375 C 7.894531 -15.375 9.144531 -15.039062 10.09375 -14.375 C 11.050781 -13.71875 11.53125 -12.648438 11.53125 -11.171875 C 11.53125 -10.304688 11.203125 -9.492188 10.546875 -8.734375 C 9.890625 -7.984375 9.125 -7.5 8.25 -7.28125 Z M 8.484375 -11.1875 C 8.484375 -11.851562 8.25 -12.363281 7.78125 -12.71875 C 7.320312 -13.082031 6.75 -13.265625 6.0625 -13.265625 L 4.265625 -13.265625 L 4.265625 -8.90625 L 5.609375 -8.90625 C 7.523438 -8.90625 8.484375 -9.664062 8.484375 -11.1875 Z M 8.484375 -11.1875 "/></g></g></g><g fill="#ef225c" fill-opacity="1"><g transform="translate(211.457492, 167.480423)"><g><path d="M 13.203125 0 L 10.09375 0 L 8.59375 -4.40625 L 4.046875 -4.40625 L 2.484375 0 L 0.046875 0 L 5.484375 -15.375 L 7.765625 -15.375 Z M 7.890625 -6.46875 C 7.222656 -8.53125 6.691406 -10.28125 6.296875 -11.71875 C 5.828125 -9.96875 5.316406 -8.21875 4.765625 -6.46875 Z M 7.890625 -6.46875 "/></g></g></g><g fill="#ef225c" fill-opacity="1"><g transform="translate(224.708548, 167.480423)"><g><path d="M 13.65625 0.109375 L 11.375 0.109375 L 4.46875 -10.4375 C 4 -11.175781 3.707031 -11.644531 3.59375 -11.84375 C 3.675781 -10.914062 3.71875 -10.445312 3.71875 -10.4375 L 3.71875 0 L 1.390625 0 L 1.390625 -14.0625 C 1.390625 -14.082031 1.363281 -14.1875 1.3125 -14.375 C 1.257812 -14.570312 1.207031 -14.773438 1.15625 -14.984375 C 1.113281 -15.203125 1.09375 -15.320312 1.09375 -15.34375 L 4.53125 -15.34375 L 10.578125 -6.15625 C 10.796875 -5.84375 11.082031 -5.378906 11.4375 -4.765625 C 11.351562 -5.816406 11.3125 -6.359375 11.3125 -6.390625 L 11.3125 -15.34375 L 13.65625 -15.34375 Z M 13.65625 0.109375 "/></g></g></g><g fill="#ef225c" fill-opacity="1"><g transform="translate(239.702608, 167.480423)"><g><path d="M 10.421875 -4.515625 C 10.421875 -3.023438 9.894531 -1.859375 8.84375 -1.015625 C 7.800781 -0.171875 6.523438 0.25 5.015625 0.25 C 3.097656 0.25 1.453125 -0.15625 0.078125 -0.96875 L 1.078125 -3.296875 C 2.160156 -2.273438 3.382812 -1.765625 4.75 -1.765625 C 5.457031 -1.765625 6.066406 -1.957031 6.578125 -2.34375 C 7.085938 -2.738281 7.34375 -3.285156 7.34375 -3.984375 C 7.34375 -4.492188 7.175781 -4.941406 6.84375 -5.328125 C 6.507812 -5.722656 6.09375 -6.03125 5.59375 -6.25 C 5.09375 -6.476562 4.550781 -6.742188 3.96875 -7.046875 C 3.382812 -7.347656 2.84375 -7.648438 2.34375 -7.953125 C 1.84375 -8.265625 1.425781 -8.703125 1.09375 -9.265625 C 0.757812 -9.835938 0.59375 -10.492188 0.59375 -11.234375 C 0.59375 -12.671875 1.09375 -13.757812 2.09375 -14.5 C 3.09375 -15.25 4.425781 -15.625 6.09375 -15.625 C 6.71875 -15.625 7.441406 -15.5 8.265625 -15.25 C 9.097656 -15 9.726562 -14.703125 10.15625 -14.359375 L 8.71875 -12.5625 C 7.925781 -13.257812 6.957031 -13.609375 5.8125 -13.609375 C 5.226562 -13.609375 4.722656 -13.453125 4.296875 -13.140625 C 3.867188 -12.835938 3.65625 -12.40625 3.65625 -11.84375 C 3.65625 -11.351562 3.820312 -10.921875 4.15625 -10.546875 C 4.488281 -10.179688 4.90625 -9.882812 5.40625 -9.65625 C 5.90625 -9.4375 6.445312 -9.171875 7.03125 -8.859375 C 7.625 -8.554688 8.164062 -8.242188 8.65625 -7.921875 C 9.15625 -7.609375 9.570312 -7.15625 9.90625 -6.5625 C 10.25 -5.976562 10.421875 -5.296875 10.421875 -4.515625 Z M 10.421875 -4.515625 "/></g></g></g><g fill="#ef225c" fill-opacity="1"><g transform="translate(250.538652, 167.480423)"><g><path d="M 11.53125 -10.765625 C 11.53125 -9.253906 10.992188 -8.109375 9.921875 -7.328125 C 8.847656 -6.554688 7.535156 -6.171875 5.984375 -6.171875 L 4.265625 -6.171875 L 4.265625 0 L 1.390625 0 L 1.390625 -14.09375 C 1.390625 -14.125 1.335938 -14.328125 1.234375 -14.703125 C 1.140625 -15.085938 1.085938 -15.3125 1.078125 -15.375 L 5.9375 -15.375 C 7.625 -15.375 8.976562 -15.007812 10 -14.28125 C 11.019531 -13.5625 11.53125 -12.390625 11.53125 -10.765625 Z M 8.46875 -10.765625 C 8.46875 -11.554688 8.265625 -12.175781 7.859375 -12.625 C 7.453125 -13.070312 6.851562 -13.296875 6.0625 -13.296875 L 4.28125 -13.296875 L 4.28125 -8.21875 L 6.046875 -8.21875 C 6.804688 -8.21875 7.398438 -8.453125 7.828125 -8.921875 C 8.253906 -9.390625 8.46875 -10.003906 8.46875 -10.765625 Z M 8.46875 -10.765625 "/></g></g></g><g fill="#ef225c" fill-opacity="1"><g transform="translate(262.613701, 167.480423)"><g><path d="M 13.203125 0 L 10.09375 0 L 8.59375 -4.40625 L 4.046875 -4.40625 L 2.484375 0 L 0.046875 0 L 5.484375 -15.375 L 7.765625 -15.375 Z M 7.890625 -6.46875 C 7.222656 -8.53125 6.691406 -10.28125 6.296875 -11.71875 C 5.828125 -9.96875 5.316406 -8.21875 4.765625 -6.46875 Z M 7.890625 -6.46875 "/></g></g></g><g fill="#ef225c" fill-opacity="1"><g transform="translate(275.864757, 167.480423)"><g><path d="M 12.953125 0 L 9.6875 0 L 5.421875 -6.84375 L 4.265625 -6.84375 L 4.265625 0 L 1.390625 0 L 1.390625 -14.09375 C 1.390625 -14.125 1.335938 -14.328125 1.234375 -14.703125 C 1.140625 -15.085938 1.085938 -15.3125 1.078125 -15.375 L 6.34375 -15.375 C 7.894531 -15.375 9.144531 -15.039062 10.09375 -14.375 C 11.050781 -13.71875 11.53125 -12.648438 11.53125 -11.171875 C 11.53125 -10.304688 11.203125 -9.492188 10.546875 -8.734375 C 9.890625 -7.984375 9.125 -7.5 8.25 -7.28125 Z M 8.484375 -11.1875 C 8.484375 -11.851562 8.25 -12.363281 7.78125 -12.71875 C 7.320312 -13.082031 6.75 -13.265625 6.0625 -13.265625 L 4.265625 -13.265625 L 4.265625 -8.90625 L 5.609375 -8.90625 C 7.523438 -8.90625 8.484375 -9.664062 8.484375 -11.1875 Z M 8.484375 -11.1875 "/></g></g></g><g fill="#ef225c" fill-opacity="1"><g transform="translate(288.275806, 167.480423)"><g><path d="M 10.75 0 L 1.40625 0 L 1.40625 -14.09375 L 1.09375 -15.375 L 10.75 -15.375 L 10.75 -13.296875 L 4.28125 -13.296875 L 4.28125 -8.953125 L 9.234375 -8.953125 L 9.234375 -6.859375 L 4.28125 -6.859375 L 4.28125 -2.078125 L 10.75 -2.078125 Z M 10.75 0 "/></g></g></g><g fill="#ef225c" fill-opacity="1"><g transform="translate(299.804858, 167.480423)"><g><path d="M 13.65625 0.109375 L 11.375 0.109375 L 4.46875 -10.4375 C 4 -11.175781 3.707031 -11.644531 3.59375 -11.84375 C 3.675781 -10.914062 3.71875 -10.445312 3.71875 -10.4375 L 3.71875 0 L 1.390625 0 L 1.390625 -14.0625 C 1.390625 -14.082031 1.363281 -14.1875 1.3125 -14.375 C 1.257812 -14.570312 1.207031 -14.773438 1.15625 -14.984375 C 1.113281 -15.203125 1.09375 -15.320312 1.09375 -15.34375 L 4.53125 -15.34375 L 10.578125 -6.15625 C 10.796875 -5.84375 11.082031 -5.378906 11.4375 -4.765625 C 11.351562 -5.816406 11.3125 -6.359375 11.3125 -6.390625 L 11.3125 -15.34375 L 13.65625 -15.34375 Z M 13.65625 0.109375 "/></g></g></g><g fill="#ef225c" fill-opacity="1"><g transform="translate(314.798917, 167.480423)"><g><path d="M 12.859375 -1.296875 C 11.972656 -0.753906 11.144531 -0.359375 10.375 -0.109375 C 9.613281 0.128906 8.742188 0.25 7.765625 0.25 C 5.398438 0.25 3.582031 -0.488281 2.3125 -1.96875 C 1.050781 -3.457031 0.421875 -5.398438 0.421875 -7.796875 C 0.421875 -10.078125 1.082031 -11.957031 2.40625 -13.4375 C 3.738281 -14.925781 5.535156 -15.671875 7.796875 -15.671875 C 8.660156 -15.671875 9.566406 -15.539062 10.515625 -15.28125 C 11.472656 -15.03125 12.222656 -14.660156 12.765625 -14.171875 L 11.25 -12.25 C 10.875 -12.664062 10.367188 -13 9.734375 -13.25 C 9.109375 -13.5 8.492188 -13.625 7.890625 -13.625 C 6.859375 -13.625 6.003906 -13.328125 5.328125 -12.734375 C 4.648438 -12.148438 4.179688 -11.445312 3.921875 -10.625 C 3.671875 -9.800781 3.546875 -8.878906 3.546875 -7.859375 C 3.546875 -7.179688 3.632812 -6.492188 3.8125 -5.796875 C 3.988281 -5.109375 4.242188 -4.453125 4.578125 -3.828125 C 4.910156 -3.203125 5.367188 -2.691406 5.953125 -2.296875 C 6.546875 -1.910156 7.207031 -1.71875 7.9375 -1.71875 C 9.238281 -1.71875 10.4375 -2.242188 11.53125 -3.296875 Z M 12.859375 -1.296875 "/></g></g></g><g fill="#ef225c" fill-opacity="1"><g transform="translate(327.902973, 167.480423)"><g><path d="M 12.046875 -15.375 L 7.5 -7 L 7.5 0 L 4.703125 0 L 4.703125 -7 L 0.203125 -15.375 L 3.3125 -15.375 L 6.390625 -9.65625 L 9.53125 -15.375 Z M 12.046875 -15.375 "/></g></g></g><g fill="#ef225c" fill-opacity="1"><g transform="translate(168.510419, 184.430321)"><g><path d="M 6.515625 -3.09375 L 6.515625 -8.734375 L 7.4375 -8.734375 L 7.4375 -3.09375 C 7.4375 -2.082031 7.15625 -1.289062 6.59375 -0.71875 C 6.03125 -0.144531 5.238281 0.140625 4.21875 0.140625 C 3.195312 0.140625 2.410156 -0.117188 1.859375 -0.640625 C 1.304688 -1.160156 1.03125 -1.921875 1.03125 -2.921875 L 1.03125 -7.9375 L 0.859375 -8.734375 L 2.171875 -8.734375 L 2.171875 -2.921875 C 2.171875 -2.222656 2.34375 -1.675781 2.6875 -1.28125 C 3.039062 -0.882812 3.566406 -0.6875 4.265625 -0.6875 C 4.992188 -0.6875 5.550781 -0.898438 5.9375 -1.328125 C 6.320312 -1.765625 6.515625 -2.351562 6.515625 -3.09375 Z M 6.515625 -3.09375 "/></g></g></g><g fill="#ef225c" fill-opacity="1"><g transform="translate(176.994438, 184.430321)"><g><path d="M 5.5625 0 L 4.578125 0 L 4.578125 -3.65625 C 4.578125 -3.84375 4.570312 -3.992188 4.5625 -4.109375 C 4.5625 -4.234375 4.539062 -4.367188 4.5 -4.515625 C 4.46875 -4.671875 4.414062 -4.796875 4.34375 -4.890625 C 4.28125 -4.984375 4.179688 -5.0625 4.046875 -5.125 C 3.921875 -5.1875 3.765625 -5.21875 3.578125 -5.21875 C 3.046875 -5.21875 2.5 -4.953125 1.9375 -4.421875 L 1.9375 0 L 0.953125 0 L 0.953125 -4.21875 C 0.953125 -4.988281 0.820312 -5.554688 0.5625 -5.921875 L 1.65625 -6.0625 C 1.78125 -5.757812 1.859375 -5.472656 1.890625 -5.203125 C 2.484375 -5.804688 3.101562 -6.109375 3.75 -6.109375 C 4.375 -6.109375 4.832031 -5.914062 5.125 -5.53125 C 5.414062 -5.15625 5.5625 -4.640625 5.5625 -3.984375 Z M 5.5625 0 "/></g></g></g><g fill="#ef225c" fill-opacity="1"><g transform="translate(183.558448, 184.430321)"><g><path d="M 2 0 L 1.015625 0 L 1.015625 -8.453125 C 1.015625 -8.453125 1 -8.503906 0.96875 -8.609375 C 0.945312 -8.710938 0.921875 -8.820312 0.890625 -8.9375 C 0.867188 -9.0625 0.859375 -9.128906 0.859375 -9.140625 L 2 -9.140625 Z M 2 0 "/></g></g></g><g fill="#ef225c" fill-opacity="1"><g transform="translate(186.570453, 184.430321)"><g><path d="M 3.21875 0.15625 C 2.375 0.15625 1.710938 -0.148438 1.234375 -0.765625 C 0.765625 -1.378906 0.53125 -2.113281 0.53125 -2.96875 C 0.53125 -3.832031 0.769531 -4.570312 1.25 -5.1875 C 1.726562 -5.800781 2.382812 -6.109375 3.21875 -6.109375 C 4.0625 -6.109375 4.722656 -5.800781 5.203125 -5.1875 C 5.679688 -4.582031 5.921875 -3.84375 5.921875 -2.96875 C 5.921875 -2.101562 5.679688 -1.363281 5.203125 -0.75 C 4.722656 -0.144531 4.0625 0.15625 3.21875 0.15625 Z M 3.21875 -0.59375 C 3.601562 -0.59375 3.925781 -0.722656 4.1875 -0.984375 C 4.445312 -1.253906 4.625 -1.554688 4.71875 -1.890625 C 4.8125 -2.234375 4.859375 -2.59375 4.859375 -2.96875 C 4.859375 -3.351562 4.8125 -3.710938 4.71875 -4.046875 C 4.625 -4.390625 4.445312 -4.691406 4.1875 -4.953125 C 3.925781 -5.222656 3.601562 -5.359375 3.21875 -5.359375 C 2.832031 -5.359375 2.507812 -5.222656 2.25 -4.953125 C 1.988281 -4.691406 1.8125 -4.390625 1.71875 -4.046875 C 1.625 -3.710938 1.578125 -3.351562 1.578125 -2.96875 C 1.578125 -2.625 1.628906 -2.28125 1.734375 -1.9375 C 1.835938 -1.59375 2.019531 -1.28125 2.28125 -1 C 2.539062 -0.726562 2.851562 -0.59375 3.21875 -0.59375 Z M 3.21875 -0.59375 "/></g></g></g><g fill="#ef225c" fill-opacity="1"><g transform="translate(193.002467, 184.430321)"><g><path d="M 4.734375 -1.203125 L 5.203125 -0.4375 C 4.816406 -0.21875 4.488281 -0.0664062 4.21875 0.015625 C 3.957031 0.109375 3.628906 0.15625 3.234375 0.15625 C 2.429688 0.15625 1.78125 -0.160156 1.28125 -0.796875 C 0.78125 -1.429688 0.53125 -2.15625 0.53125 -2.96875 C 0.53125 -3.875 0.78125 -4.625 1.28125 -5.21875 C 1.789062 -5.8125 2.492188 -6.109375 3.390625 -6.109375 C 4.003906 -6.109375 4.578125 -5.90625 5.109375 -5.5 L 4.578125 -4.796875 C 4.335938 -4.992188 4.125 -5.128906 3.9375 -5.203125 C 3.75 -5.285156 3.515625 -5.328125 3.234375 -5.328125 C 2.710938 -5.328125 2.304688 -5.085938 2.015625 -4.609375 C 1.734375 -4.140625 1.59375 -3.628906 1.59375 -3.078125 C 1.59375 -2.710938 1.644531 -2.351562 1.75 -2 C 1.863281 -1.65625 2.050781 -1.347656 2.3125 -1.078125 C 2.582031 -0.804688 2.90625 -0.671875 3.28125 -0.671875 C 3.570312 -0.671875 3.816406 -0.707031 4.015625 -0.78125 C 4.210938 -0.863281 4.453125 -1.003906 4.734375 -1.203125 Z M 4.734375 -1.203125 "/></g></g></g><g fill="#ef225c" fill-opacity="1"><g transform="translate(198.402476, 184.430321)"><g><path d="M 5.59375 0 L 4.40625 0 L 1.96875 -3.234375 L 1.96875 0 L 0.96875 0 L 0.96875 -8.4375 C 0.96875 -8.445312 0.957031 -8.503906 0.9375 -8.609375 C 0.914062 -8.710938 0.890625 -8.820312 0.859375 -8.9375 C 0.828125 -9.0625 0.8125 -9.128906 0.8125 -9.140625 L 1.96875 -9.140625 L 1.96875 -3.5 L 4.203125 -5.96875 L 5.265625 -5.96875 L 2.96875 -3.453125 Z M 5.59375 0 "/></g></g></g><g fill="#ef225c" fill-opacity="1"><g transform="translate(203.982489, 184.430321)"><g><path d="M 2.21875 -7.96875 C 2.21875 -7.757812 2.144531 -7.582031 2 -7.4375 C 1.863281 -7.300781 1.691406 -7.234375 1.484375 -7.234375 C 1.285156 -7.234375 1.113281 -7.304688 0.96875 -7.453125 C 0.832031 -7.597656 0.765625 -7.769531 0.765625 -7.96875 C 0.765625 -8.164062 0.832031 -8.335938 0.96875 -8.484375 C 1.113281 -8.628906 1.285156 -8.703125 1.484375 -8.703125 C 1.679688 -8.703125 1.851562 -8.628906 2 -8.484375 C 2.144531 -8.335938 2.21875 -8.164062 2.21875 -7.96875 Z M 2 0 L 1.015625 0 L 1.015625 -5.25 C 1.015625 -5.257812 1 -5.316406 0.96875 -5.421875 C 0.945312 -5.535156 0.921875 -5.648438 0.890625 -5.765625 C 0.867188 -5.878906 0.859375 -5.945312 0.859375 -5.96875 L 2 -5.96875 Z M 2 0 "/></g></g></g><g fill="#ef225c" fill-opacity="1"><g transform="translate(206.994494, 184.430321)"><g><path d="M 5.5625 0 L 4.578125 0 L 4.578125 -3.65625 C 4.578125 -3.84375 4.570312 -3.992188 4.5625 -4.109375 C 4.5625 -4.234375 4.539062 -4.367188 4.5 -4.515625 C 4.46875 -4.671875 4.414062 -4.796875 4.34375 -4.890625 C 4.28125 -4.984375 4.179688 -5.0625 4.046875 -5.125 C 3.921875 -5.1875 3.765625 -5.21875 3.578125 -5.21875 C 3.046875 -5.21875 2.5 -4.953125 1.9375 -4.421875 L 1.9375 0 L 0.953125 0 L 0.953125 -4.21875 C 0.953125 -4.988281 0.820312 -5.554688 0.5625 -5.921875 L 1.65625 -6.0625 C 1.78125 -5.757812 1.859375 -5.472656 1.890625 -5.203125 C 2.484375 -5.804688 3.101562 -6.109375 3.75 -6.109375 C 4.375 -6.109375 4.832031 -5.914062 5.125 -5.53125 C 5.414062 -5.15625 5.5625 -4.640625 5.5625 -3.984375 Z M 5.5625 0 "/></g></g></g><g fill="#ef225c" fill-opacity="1"><g transform="translate(213.558504, 184.430321)"><g><path d="M 5.65625 -5.25 L 4.375 -5.25 C 4.632812 -4.90625 4.765625 -4.503906 4.765625 -4.046875 C 4.765625 -3.472656 4.554688 -2.984375 4.140625 -2.578125 C 3.722656 -2.171875 3.226562 -1.96875 2.65625 -1.96875 C 2.59375 -1.96875 2.507812 -1.972656 2.40625 -1.984375 C 2.3125 -2.003906 2.242188 -2.015625 2.203125 -2.015625 C 2.085938 -2.015625 1.976562 -1.9375 1.875 -1.78125 C 1.769531 -1.625 1.71875 -1.484375 1.71875 -1.359375 C 1.71875 -1.222656 1.757812 -1.117188 1.84375 -1.046875 C 1.925781 -0.972656 2.007812 -0.929688 2.09375 -0.921875 C 2.175781 -0.910156 2.296875 -0.90625 2.453125 -0.90625 C 2.578125 -0.90625 2.769531 -0.910156 3.03125 -0.921875 C 3.300781 -0.941406 3.492188 -0.953125 3.609375 -0.953125 C 4.859375 -0.953125 5.484375 -0.53125 5.484375 0.3125 C 5.484375 1.132812 5.179688 1.75 4.578125 2.15625 C 3.972656 2.5625 3.25 2.765625 2.40625 2.765625 C 1.851562 2.765625 1.351562 2.640625 0.90625 2.390625 C 0.46875 2.140625 0.25 1.757812 0.25 1.25 C 0.25 0.726562 0.554688 0.253906 1.171875 -0.171875 C 0.804688 -0.347656 0.625 -0.640625 0.625 -1.046875 C 0.625 -1.066406 0.671875 -1.148438 0.765625 -1.296875 C 1.097656 -1.742188 1.328125 -2.085938 1.453125 -2.328125 C 1.160156 -2.515625 0.929688 -2.757812 0.765625 -3.0625 C 0.609375 -3.375 0.53125 -3.695312 0.53125 -4.03125 C 0.53125 -4.601562 0.738281 -5.09375 1.15625 -5.5 C 1.570312 -5.90625 2.066406 -6.109375 2.640625 -6.109375 C 2.796875 -6.109375 3.019531 -6.078125 3.3125 -6.015625 C 3.601562 -5.960938 3.816406 -5.9375 3.953125 -5.9375 C 4.359375 -5.9375 5 -6 5.875 -6.125 Z M 2.640625 -2.6875 C 2.929688 -2.6875 3.179688 -2.816406 3.390625 -3.078125 C 3.609375 -3.335938 3.71875 -3.65625 3.71875 -4.03125 C 3.71875 -4.40625 3.609375 -4.722656 3.390625 -4.984375 C 3.179688 -5.253906 2.9375 -5.390625 2.65625 -5.390625 C 2.351562 -5.390625 2.097656 -5.257812 1.890625 -5 C 1.679688 -4.738281 1.578125 -4.421875 1.578125 -4.046875 C 1.578125 -3.671875 1.679688 -3.347656 1.890625 -3.078125 C 2.097656 -2.816406 2.347656 -2.6875 2.640625 -2.6875 Z M 1.890625 0.03125 C 1.722656 0.15625 1.578125 0.3125 1.453125 0.5 C 1.335938 0.6875 1.28125 0.867188 1.28125 1.046875 C 1.28125 1.316406 1.421875 1.53125 1.703125 1.6875 C 1.984375 1.851562 2.273438 1.9375 2.578125 1.9375 C 3.085938 1.9375 3.546875 1.832031 3.953125 1.625 C 4.359375 1.414062 4.5625 1.09375 4.5625 0.65625 C 4.5625 0.507812 4.523438 0.390625 4.453125 0.296875 C 4.378906 0.203125 4.273438 0.132812 4.140625 0.09375 C 4.003906 0.0507812 3.878906 0.0234375 3.765625 0.015625 C 3.648438 0.00390625 3.507812 0 3.34375 0 C 2.851562 0 2.367188 0.0078125 1.890625 0.03125 Z M 1.890625 0.03125 "/></g></g></g><g fill="#ef225c" fill-opacity="1"><g transform="translate(219.294511, 184.430321)"><g/></g></g><g fill="#ef225c" fill-opacity="1"><g transform="translate(222.054517, 184.430321)"><g><path d="M 5.59375 0 L 4.609375 0 L 4.609375 -3.671875 C 4.609375 -3.898438 4.597656 -4.085938 4.578125 -4.234375 C 4.566406 -4.378906 4.53125 -4.535156 4.46875 -4.703125 C 4.40625 -4.878906 4.300781 -5.007812 4.15625 -5.09375 C 4.019531 -5.1875 3.835938 -5.234375 3.609375 -5.234375 C 3.148438 -5.234375 2.601562 -4.96875 1.96875 -4.4375 L 1.96875 0 L 0.984375 0 L 0.984375 -8.4375 C 0.984375 -8.445312 0.96875 -8.503906 0.9375 -8.609375 C 0.914062 -8.710938 0.890625 -8.820312 0.859375 -8.9375 C 0.835938 -9.0625 0.828125 -9.128906 0.828125 -9.140625 L 1.96875 -9.140625 L 1.96875 -5.25 C 2.570312 -5.832031 3.175781 -6.125 3.78125 -6.125 C 4.988281 -6.125 5.59375 -5.414062 5.59375 -4 Z M 5.59375 0 "/></g></g></g><g fill="#ef225c" fill-opacity="1"><g transform="translate(228.618527, 184.430321)"><g><path d="M 4.875 -1.234375 L 5.3125 -0.515625 C 4.757812 -0.0664062 4.085938 0.15625 3.296875 0.15625 C 2.429688 0.15625 1.753906 -0.128906 1.265625 -0.703125 C 0.773438 -1.285156 0.53125 -2.023438 0.53125 -2.921875 C 0.53125 -3.460938 0.617188 -3.96875 0.796875 -4.4375 C 0.972656 -4.90625 1.265625 -5.300781 1.671875 -5.625 C 2.078125 -5.945312 2.5625 -6.109375 3.125 -6.109375 C 3.8125 -6.109375 4.367188 -5.898438 4.796875 -5.484375 C 5.222656 -5.078125 5.4375 -4.53125 5.4375 -3.84375 C 5.4375 -3.332031 5.234375 -3.078125 4.828125 -3.078125 L 1.578125 -3.078125 L 1.578125 -2.953125 C 1.578125 -2.378906 1.734375 -1.859375 2.046875 -1.390625 C 2.359375 -0.921875 2.785156 -0.6875 3.328125 -0.6875 C 3.585938 -0.6875 3.859375 -0.734375 4.140625 -0.828125 C 4.429688 -0.929688 4.675781 -1.066406 4.875 -1.234375 Z M 1.65625 -3.8125 L 4.15625 -3.8125 C 4.25 -3.8125 4.304688 -3.828125 4.328125 -3.859375 C 4.359375 -3.898438 4.375 -3.96875 4.375 -4.0625 C 4.375 -4.425781 4.269531 -4.734375 4.0625 -4.984375 C 3.851562 -5.234375 3.570312 -5.359375 3.21875 -5.359375 C 2.832031 -5.359375 2.492188 -5.203125 2.203125 -4.890625 C 1.910156 -4.578125 1.726562 -4.21875 1.65625 -3.8125 Z M 1.65625 -3.8125 "/></g></g></g><g fill="#ef225c" fill-opacity="1"><g transform="translate(234.546543, 184.430321)"><g><path d="M 5.765625 -0.875 L 5.96875 -0.25 C 5.914062 -0.226562 5.828125 -0.191406 5.703125 -0.140625 C 5.578125 -0.0859375 5.476562 -0.046875 5.40625 -0.015625 C 5.332031 0.015625 5.238281 0.0390625 5.125 0.0625 C 5.007812 0.09375 4.910156 0.109375 4.828125 0.109375 C 4.585938 0.109375 4.394531 0.0351562 4.25 -0.109375 C 4.101562 -0.265625 4.007812 -0.460938 3.96875 -0.703125 C 3.4375 -0.148438 2.835938 0.125 2.171875 0.125 C 1.691406 0.125 1.296875 -0.015625 0.984375 -0.296875 C 0.679688 -0.578125 0.53125 -0.957031 0.53125 -1.4375 C 0.53125 -2.789062 1.671875 -3.472656 3.953125 -3.484375 L 3.953125 -4.125 C 3.953125 -4.925781 3.617188 -5.328125 2.953125 -5.328125 C 2.640625 -5.328125 2.320312 -5.257812 2 -5.125 C 1.6875 -5 1.429688 -4.832031 1.234375 -4.625 L 0.75 -5.328125 C 1.394531 -5.847656 2.15625 -6.109375 3.03125 -6.109375 C 3.65625 -6.109375 4.128906 -5.9375 4.453125 -5.59375 C 4.773438 -5.257812 4.9375 -4.773438 4.9375 -4.140625 L 4.9375 -1.15625 C 4.9375 -1 4.953125 -0.882812 4.984375 -0.8125 C 5.023438 -0.738281 5.097656 -0.703125 5.203125 -0.703125 C 5.304688 -0.703125 5.492188 -0.757812 5.765625 -0.875 Z M 3.953125 -2.328125 L 3.953125 -2.71875 C 3.648438 -2.71875 3.394531 -2.707031 3.1875 -2.6875 C 2.976562 -2.664062 2.726562 -2.617188 2.4375 -2.546875 C 2.15625 -2.472656 1.9375 -2.34375 1.78125 -2.15625 C 1.625 -1.976562 1.546875 -1.75 1.546875 -1.46875 C 1.546875 -1.21875 1.628906 -1.023438 1.796875 -0.890625 C 1.972656 -0.765625 2.207031 -0.703125 2.5 -0.703125 C 2.90625 -0.703125 3.25 -0.867188 3.53125 -1.203125 C 3.8125 -1.535156 3.953125 -1.910156 3.953125 -2.328125 Z M 3.953125 -2.328125 "/></g></g></g><g fill="#ef225c" fill-opacity="1"><g transform="translate(240.47456, 184.430321)"><g><path d="M 2 0 L 1.015625 0 L 1.015625 -8.453125 C 1.015625 -8.453125 1 -8.503906 0.96875 -8.609375 C 0.945312 -8.710938 0.921875 -8.820312 0.890625 -8.9375 C 0.867188 -9.0625 0.859375 -9.128906 0.859375 -9.140625 L 2 -9.140625 Z M 2 0 "/></g></g></g><g fill="#ef225c" fill-opacity="1"><g transform="translate(243.486564, 184.430321)"><g><path d="M 3.515625 -0.75 L 3.6875 -0.078125 C 3.207031 0.0546875 2.8125 0.125 2.5 0.125 C 2.007812 0.125 1.65625 0 1.4375 -0.25 C 1.226562 -0.507812 1.125 -0.898438 1.125 -1.421875 L 1.125 -5.203125 L 0.234375 -5.203125 L 0.234375 -5.8125 C 0.929688 -5.820312 1.394531 -6.441406 1.625 -7.671875 L 2.390625 -7.671875 C 2.210938 -6.953125 2.125 -6.382812 2.125 -5.96875 L 3.6875 -5.96875 L 3.46875 -5.203125 L 2.125 -5.203125 L 2.125 -1.390625 C 2.125 -1.140625 2.171875 -0.953125 2.265625 -0.828125 C 2.359375 -0.703125 2.523438 -0.640625 2.765625 -0.640625 C 2.941406 -0.640625 3.191406 -0.675781 3.515625 -0.75 Z M 3.515625 -0.75 "/></g></g></g><g fill="#ef225c" fill-opacity="1"><g transform="translate(247.410571, 184.430321)"><g><path d="M 5.59375 0 L 4.609375 0 L 4.609375 -3.671875 C 4.609375 -3.898438 4.597656 -4.085938 4.578125 -4.234375 C 4.566406 -4.378906 4.53125 -4.535156 4.46875 -4.703125 C 4.40625 -4.878906 4.300781 -5.007812 4.15625 -5.09375 C 4.019531 -5.1875 3.835938 -5.234375 3.609375 -5.234375 C 3.148438 -5.234375 2.601562 -4.96875 1.96875 -4.4375 L 1.96875 0 L 0.984375 0 L 0.984375 -8.4375 C 0.984375 -8.445312 0.96875 -8.503906 0.9375 -8.609375 C 0.914062 -8.710938 0.890625 -8.820312 0.859375 -8.9375 C 0.835938 -9.0625 0.828125 -9.128906 0.828125 -9.140625 L 1.96875 -9.140625 L 1.96875 -5.25 C 2.570312 -5.832031 3.175781 -6.125 3.78125 -6.125 C 4.988281 -6.125 5.59375 -5.414062 5.59375 -4 Z M 5.59375 0 "/></g></g></g><g fill="#ef225c" fill-opacity="1"><g transform="translate(253.974582, 184.430321)"><g><path d="M 4.734375 -1.203125 L 5.203125 -0.4375 C 4.816406 -0.21875 4.488281 -0.0664062 4.21875 0.015625 C 3.957031 0.109375 3.628906 0.15625 3.234375 0.15625 C 2.429688 0.15625 1.78125 -0.160156 1.28125 -0.796875 C 0.78125 -1.429688 0.53125 -2.15625 0.53125 -2.96875 C 0.53125 -3.875 0.78125 -4.625 1.28125 -5.21875 C 1.789062 -5.8125 2.492188 -6.109375 3.390625 -6.109375 C 4.003906 -6.109375 4.578125 -5.90625 5.109375 -5.5 L 4.578125 -4.796875 C 4.335938 -4.992188 4.125 -5.128906 3.9375 -5.203125 C 3.75 -5.285156 3.515625 -5.328125 3.234375 -5.328125 C 2.710938 -5.328125 2.304688 -5.085938 2.015625 -4.609375 C 1.734375 -4.140625 1.59375 -3.628906 1.59375 -3.078125 C 1.59375 -2.710938 1.644531 -2.351562 1.75 -2 C 1.863281 -1.65625 2.050781 -1.347656 2.3125 -1.078125 C 2.582031 -0.804688 2.90625 -0.671875 3.28125 -0.671875 C 3.570312 -0.671875 3.816406 -0.707031 4.015625 -0.78125 C 4.210938 -0.863281 4.453125 -1.003906 4.734375 -1.203125 Z M 4.734375 -1.203125 "/></g></g></g><g fill="#ef225c" fill-opacity="1"><g transform="translate(259.37459, 184.430321)"><g><path d="M 5.765625 -0.875 L 5.96875 -0.25 C 5.914062 -0.226562 5.828125 -0.191406 5.703125 -0.140625 C 5.578125 -0.0859375 5.476562 -0.046875 5.40625 -0.015625 C 5.332031 0.015625 5.238281 0.0390625 5.125 0.0625 C 5.007812 0.09375 4.910156 0.109375 4.828125 0.109375 C 4.585938 0.109375 4.394531 0.0351562 4.25 -0.109375 C 4.101562 -0.265625 4.007812 -0.460938 3.96875 -0.703125 C 3.4375 -0.148438 2.835938 0.125 2.171875 0.125 C 1.691406 0.125 1.296875 -0.015625 0.984375 -0.296875 C 0.679688 -0.578125 0.53125 -0.957031 0.53125 -1.4375 C 0.53125 -2.789062 1.671875 -3.472656 3.953125 -3.484375 L 3.953125 -4.125 C 3.953125 -4.925781 3.617188 -5.328125 2.953125 -5.328125 C 2.640625 -5.328125 2.320312 -5.257812 2 -5.125 C 1.6875 -5 1.429688 -4.832031 1.234375 -4.625 L 0.75 -5.328125 C 1.394531 -5.847656 2.15625 -6.109375 3.03125 -6.109375 C 3.65625 -6.109375 4.128906 -5.9375 4.453125 -5.59375 C 4.773438 -5.257812 4.9375 -4.773438 4.9375 -4.140625 L 4.9375 -1.15625 C 4.9375 -1 4.953125 -0.882812 4.984375 -0.8125 C 5.023438 -0.738281 5.097656 -0.703125 5.203125 -0.703125 C 5.304688 -0.703125 5.492188 -0.757812 5.765625 -0.875 Z M 3.953125 -2.328125 L 3.953125 -2.71875 C 3.648438 -2.71875 3.394531 -2.707031 3.1875 -2.6875 C 2.976562 -2.664062 2.726562 -2.617188 2.4375 -2.546875 C 2.15625 -2.472656 1.9375 -2.34375 1.78125 -2.15625 C 1.625 -1.976562 1.546875 -1.75 1.546875 -1.46875 C 1.546875 -1.21875 1.628906 -1.023438 1.796875 -0.890625 C 1.972656 -0.765625 2.207031 -0.703125 2.5 -0.703125 C 2.90625 -0.703125 3.25 -0.867188 3.53125 -1.203125 C 3.8125 -1.535156 3.953125 -1.910156 3.953125 -2.328125 Z M 3.953125 -2.328125 "/></g></g></g><g fill="#ef225c" fill-opacity="1"><g transform="translate(265.302607, 184.430321)"><g><path d="M 1.96875 0 L 0.96875 0 L 0.96875 -4.3125 C 0.96875 -5.019531 0.84375 -5.5625 0.59375 -5.9375 L 1.671875 -6.078125 C 1.816406 -5.722656 1.90625 -5.347656 1.9375 -4.953125 C 2.15625 -5.285156 2.441406 -5.554688 2.796875 -5.765625 C 3.148438 -5.972656 3.519531 -6.078125 3.90625 -6.078125 L 3.65625 -5.015625 C 3.007812 -5.015625 2.445312 -4.660156 1.96875 -3.953125 Z M 1.96875 0 "/></g></g></g><g fill="#ef225c" fill-opacity="1"><g transform="translate(269.490618, 184.430321)"><g><path d="M 4.875 -1.234375 L 5.3125 -0.515625 C 4.757812 -0.0664062 4.085938 0.15625 3.296875 0.15625 C 2.429688 0.15625 1.753906 -0.128906 1.265625 -0.703125 C 0.773438 -1.285156 0.53125 -2.023438 0.53125 -2.921875 C 0.53125 -3.460938 0.617188 -3.96875 0.796875 -4.4375 C 0.972656 -4.90625 1.265625 -5.300781 1.671875 -5.625 C 2.078125 -5.945312 2.5625 -6.109375 3.125 -6.109375 C 3.8125 -6.109375 4.367188 -5.898438 4.796875 -5.484375 C 5.222656 -5.078125 5.4375 -4.53125 5.4375 -3.84375 C 5.4375 -3.332031 5.234375 -3.078125 4.828125 -3.078125 L 1.578125 -3.078125 L 1.578125 -2.953125 C 1.578125 -2.378906 1.734375 -1.859375 2.046875 -1.390625 C 2.359375 -0.921875 2.785156 -0.6875 3.328125 -0.6875 C 3.585938 -0.6875 3.859375 -0.734375 4.140625 -0.828125 C 4.429688 -0.929688 4.675781 -1.066406 4.875 -1.234375 Z M 1.65625 -3.8125 L 4.15625 -3.8125 C 4.25 -3.8125 4.304688 -3.828125 4.328125 -3.859375 C 4.359375 -3.898438 4.375 -3.96875 4.375 -4.0625 C 4.375 -4.425781 4.269531 -4.734375 4.0625 -4.984375 C 3.851562 -5.234375 3.570312 -5.359375 3.21875 -5.359375 C 2.832031 -5.359375 2.492188 -5.203125 2.203125 -4.890625 C 1.910156 -4.578125 1.726562 -4.21875 1.65625 -3.8125 Z M 1.65625 -3.8125 "/></g></g></g><g fill="#ef225c" fill-opacity="1"><g transform="translate(275.418634, 184.430321)"><g/></g></g><g fill="#ef225c" fill-opacity="1"><g transform="translate(278.17864, 184.430321)"><g><path d="M 4.734375 -1.203125 L 5.203125 -0.4375 C 4.816406 -0.21875 4.488281 -0.0664062 4.21875 0.015625 C 3.957031 0.109375 3.628906 0.15625 3.234375 0.15625 C 2.429688 0.15625 1.78125 -0.160156 1.28125 -0.796875 C 0.78125 -1.429688 0.53125 -2.15625 0.53125 -2.96875 C 0.53125 -3.875 0.78125 -4.625 1.28125 -5.21875 C 1.789062 -5.8125 2.492188 -6.109375 3.390625 -6.109375 C 4.003906 -6.109375 4.578125 -5.90625 5.109375 -5.5 L 4.578125 -4.796875 C 4.335938 -4.992188 4.125 -5.128906 3.9375 -5.203125 C 3.75 -5.285156 3.515625 -5.328125 3.234375 -5.328125 C 2.710938 -5.328125 2.304688 -5.085938 2.015625 -4.609375 C 1.734375 -4.140625 1.59375 -3.628906 1.59375 -3.078125 C 1.59375 -2.710938 1.644531 -2.351562 1.75 -2 C 1.863281 -1.65625 2.050781 -1.347656 2.3125 -1.078125 C 2.582031 -0.804688 2.90625 -0.671875 3.28125 -0.671875 C 3.570312 -0.671875 3.816406 -0.707031 4.015625 -0.78125 C 4.210938 -0.863281 4.453125 -1.003906 4.734375 -1.203125 Z M 4.734375 -1.203125 "/></g></g></g><g fill="#ef225c" fill-opacity="1"><g transform="translate(283.578648, 184.430321)"><g><path d="M 2 0 L 1.015625 0 L 1.015625 -8.453125 C 1.015625 -8.453125 1 -8.503906 0.96875 -8.609375 C 0.945312 -8.710938 0.921875 -8.820312 0.890625 -8.9375 C 0.867188 -9.0625 0.859375 -9.128906 0.859375 -9.140625 L 2 -9.140625 Z M 2 0 "/></g></g></g><g fill="#ef225c" fill-opacity="1"><g transform="translate(286.590653, 184.430321)"><g><path d="M 5.765625 -0.875 L 5.96875 -0.25 C 5.914062 -0.226562 5.828125 -0.191406 5.703125 -0.140625 C 5.578125 -0.0859375 5.476562 -0.046875 5.40625 -0.015625 C 5.332031 0.015625 5.238281 0.0390625 5.125 0.0625 C 5.007812 0.09375 4.910156 0.109375 4.828125 0.109375 C 4.585938 0.109375 4.394531 0.0351562 4.25 -0.109375 C 4.101562 -0.265625 4.007812 -0.460938 3.96875 -0.703125 C 3.4375 -0.148438 2.835938 0.125 2.171875 0.125 C 1.691406 0.125 1.296875 -0.015625 0.984375 -0.296875 C 0.679688 -0.578125 0.53125 -0.957031 0.53125 -1.4375 C 0.53125 -2.789062 1.671875 -3.472656 3.953125 -3.484375 L 3.953125 -4.125 C 3.953125 -4.925781 3.617188 -5.328125 2.953125 -5.328125 C 2.640625 -5.328125 2.320312 -5.257812 2 -5.125 C 1.6875 -5 1.429688 -4.832031 1.234375 -4.625 L 0.75 -5.328125 C 1.394531 -5.847656 2.15625 -6.109375 3.03125 -6.109375 C 3.65625 -6.109375 4.128906 -5.9375 4.453125 -5.59375 C 4.773438 -5.257812 4.9375 -4.773438 4.9375 -4.140625 L 4.9375 -1.15625 C 4.9375 -1 4.953125 -0.882812 4.984375 -0.8125 C 5.023438 -0.738281 5.097656 -0.703125 5.203125 -0.703125 C 5.304688 -0.703125 5.492188 -0.757812 5.765625 -0.875 Z M 3.953125 -2.328125 L 3.953125 -2.71875 C 3.648438 -2.71875 3.394531 -2.707031 3.1875 -2.6875 C 2.976562 -2.664062 2.726562 -2.617188 2.4375 -2.546875 C 2.15625 -2.472656 1.9375 -2.34375 1.78125 -2.15625 C 1.625 -1.976562 1.546875 -1.75 1.546875 -1.46875 C 1.546875 -1.21875 1.628906 -1.023438 1.796875 -0.890625 C 1.972656 -0.765625 2.207031 -0.703125 2.5 -0.703125 C 2.90625 -0.703125 3.25 -0.867188 3.53125 -1.203125 C 3.8125 -1.535156 3.953125 -1.910156 3.953125 -2.328125 Z M 3.953125 -2.328125 "/></g></g></g><g fill="#ef225c" fill-opacity="1"><g transform="translate(292.518669, 184.430321)"><g><path d="M 1.96875 0 L 0.96875 0 L 0.96875 -4.3125 C 0.96875 -5.019531 0.84375 -5.5625 0.59375 -5.9375 L 1.671875 -6.078125 C 1.816406 -5.722656 1.90625 -5.347656 1.9375 -4.953125 C 2.15625 -5.285156 2.441406 -5.554688 2.796875 -5.765625 C 3.148438 -5.972656 3.519531 -6.078125 3.90625 -6.078125 L 3.65625 -5.015625 C 3.007812 -5.015625 2.445312 -4.660156 1.96875 -3.953125 Z M 1.96875 0 "/></g></g></g><g fill="#ef225c" fill-opacity="1"><g transform="translate(296.70668, 184.430321)"><g><path d="M 2.21875 -7.96875 C 2.21875 -7.757812 2.144531 -7.582031 2 -7.4375 C 1.863281 -7.300781 1.691406 -7.234375 1.484375 -7.234375 C 1.285156 -7.234375 1.113281 -7.304688 0.96875 -7.453125 C 0.832031 -7.597656 0.765625 -7.769531 0.765625 -7.96875 C 0.765625 -8.164062 0.832031 -8.335938 0.96875 -8.484375 C 1.113281 -8.628906 1.285156 -8.703125 1.484375 -8.703125 C 1.679688 -8.703125 1.851562 -8.628906 2 -8.484375 C 2.144531 -8.335938 2.21875 -8.164062 2.21875 -7.96875 Z M 2 0 L 1.015625 0 L 1.015625 -5.25 C 1.015625 -5.257812 1 -5.316406 0.96875 -5.421875 C 0.945312 -5.535156 0.921875 -5.648438 0.890625 -5.765625 C 0.867188 -5.878906 0.859375 -5.945312 0.859375 -5.96875 L 2 -5.96875 Z M 2 0 "/></g></g></g><g fill="#ef225c" fill-opacity="1"><g transform="translate(299.718685, 184.430321)"><g><path d="M 3.515625 -0.75 L 3.6875 -0.078125 C 3.207031 0.0546875 2.8125 0.125 2.5 0.125 C 2.007812 0.125 1.65625 0 1.4375 -0.25 C 1.226562 -0.507812 1.125 -0.898438 1.125 -1.421875 L 1.125 -5.203125 L 0.234375 -5.203125 L 0.234375 -5.8125 C 0.929688 -5.820312 1.394531 -6.441406 1.625 -7.671875 L 2.390625 -7.671875 C 2.210938 -6.953125 2.125 -6.382812 2.125 -5.96875 L 3.6875 -5.96875 L 3.46875 -5.203125 L 2.125 -5.203125 L 2.125 -1.390625 C 2.125 -1.140625 2.171875 -0.953125 2.265625 -0.828125 C 2.359375 -0.703125 2.523438 -0.640625 2.765625 -0.640625 C 2.941406 -0.640625 3.191406 -0.675781 3.515625 -0.75 Z M 3.515625 -0.75 "/></g></g></g><g fill="#ef225c" fill-opacity="1"><g transform="translate(303.642692, 184.430321)"><g><path d="M 0.90625 2.609375 L 0.453125 2.609375 L 0.453125 1.796875 L 0.59375 1.796875 C 0.832031 1.796875 1.046875 1.738281 1.234375 1.625 C 1.429688 1.519531 1.597656 1.363281 1.734375 1.15625 C 1.867188 0.957031 1.976562 0.769531 2.0625 0.59375 C 2.15625 0.414062 2.242188 0.203125 2.328125 -0.046875 L 0.140625 -5.96875 L 1.21875 -5.96875 L 2.8125 -1.421875 L 4.390625 -5.96875 L 5.328125 -5.96875 L 3.21875 0.03125 C 2.601562 1.75 1.832031 2.609375 0.90625 2.609375 Z M 0.90625 2.609375 "/></g></g></g></svg>