<svg xmlns="http://www.w3.org/2000/svg" xmlns:xlink="http://www.w3.org/1999/xlink" width="500" zoomAndPan="magnify" viewBox="0 0 375 374.999991" height="500" preserveAspectRatio="xMidYMid meet" version="1.0"><defs><g/></defs><g fill="#ef225c" fill-opacity="1"><g transform="translate(11.742191, 197.999987)"><g><path d="M 16.296875 -7.734375 L 16.296875 -21.84375 L 18.59375 -21.84375 L 18.59375 -7.734375 C 18.59375 -5.203125 17.890625 -3.21875 16.484375 -1.78125 C 15.078125 -0.351562 13.09375 0.359375 10.53125 0.359375 C 7.988281 0.359375 6.023438 -0.289062 4.640625 -1.59375 C 3.265625 -2.90625 2.578125 -4.8125 2.578125 -7.3125 L 2.578125 -19.859375 L 2.125 -21.84375 L 5.4375 -21.84375 L 5.4375 -7.3125 C 5.4375 -5.5625 5.867188 -4.1875 6.734375 -3.1875 C 7.609375 -2.195312 8.914062 -1.703125 10.65625 -1.703125 C 12.46875 -1.703125 13.859375 -2.25 14.828125 -3.34375 C 15.804688 -4.4375 16.296875 -5.898438 16.296875 -7.734375 Z M 16.296875 -7.734375 "/></g></g></g><g fill="#ef225c" fill-opacity="1"><g transform="translate(32.952166, 197.999987)"><g><path d="M 13.921875 0 L 11.453125 0 L 11.453125 -9.15625 C 11.453125 -9.613281 11.441406 -9.988281 11.421875 -10.28125 C 11.410156 -10.582031 11.359375 -10.921875 11.265625 -11.296875 C 11.171875 -11.679688 11.039062 -11.988281 10.875 -12.21875 C 10.707031 -12.445312 10.457031 -12.640625 10.125 -12.796875 C 9.789062 -12.960938 9.394531 -13.046875 8.9375 -13.046875 C 7.613281 -13.046875 6.253906 -12.382812 4.859375 -11.0625 L 4.859375 0 L 2.40625 0 L 2.40625 -10.5625 C 2.40625 -12.476562 2.070312 -13.890625 1.40625 -14.796875 L 4.140625 -15.15625 C 4.441406 -14.394531 4.628906 -13.679688 4.703125 -13.015625 C 6.203125 -14.515625 7.753906 -15.265625 9.359375 -15.265625 C 10.941406 -15.265625 12.097656 -14.789062 12.828125 -13.84375 C 13.554688 -12.894531 13.921875 -11.597656 13.921875 -9.953125 Z M 13.921875 0 "/></g></g></g><g fill="#ef225c" fill-opacity="1"><g transform="translate(49.362145, 197.999987)"><g><path d="M 5.015625 0 L 2.515625 0 L 2.515625 -21.125 C 2.515625 -21.144531 2.484375 -21.285156 2.421875 -21.546875 C 2.367188 -21.804688 2.304688 -22.078125 2.234375 -22.359375 C 2.160156 -22.648438 2.125 -22.816406 2.125 -22.859375 L 5.015625 -22.859375 Z M 5.015625 0 "/></g></g></g><g fill="#ef225c" fill-opacity="1"><g transform="translate(56.89214, 197.999987)"><g><path d="M 8.046875 0.390625 C 5.941406 0.390625 4.289062 -0.375 3.09375 -1.90625 C 1.90625 -3.4375 1.3125 -5.28125 1.3125 -7.4375 C 1.3125 -9.582031 1.910156 -11.421875 3.109375 -12.953125 C 4.316406 -14.492188 5.960938 -15.265625 8.046875 -15.265625 C 10.160156 -15.265625 11.8125 -14.503906 13 -12.984375 C 14.195312 -11.460938 14.796875 -9.613281 14.796875 -7.4375 C 14.796875 -5.257812 14.195312 -3.410156 13 -1.890625 C 11.8125 -0.367188 10.160156 0.390625 8.046875 0.390625 Z M 8.046875 -1.5 C 9.023438 -1.5 9.835938 -1.828125 10.484375 -2.484375 C 11.128906 -3.148438 11.566406 -3.90625 11.796875 -4.75 C 12.035156 -5.601562 12.15625 -6.5 12.15625 -7.4375 C 12.15625 -8.375 12.035156 -9.269531 11.796875 -10.125 C 11.554688 -10.976562 11.109375 -11.734375 10.453125 -12.390625 C 9.804688 -13.046875 9.003906 -13.375 8.046875 -13.375 C 7.078125 -13.375 6.269531 -13.046875 5.625 -12.390625 C 4.976562 -11.734375 4.535156 -10.976562 4.296875 -10.125 C 4.066406 -9.269531 3.953125 -8.375 3.953125 -7.4375 C 3.953125 -6.5625 4.082031 -5.691406 4.34375 -4.828125 C 4.601562 -3.972656 5.054688 -3.203125 5.703125 -2.515625 C 6.359375 -1.835938 7.140625 -1.5 8.046875 -1.5 Z M 8.046875 -1.5 "/></g></g></g><g fill="#ef225c" fill-opacity="1"><g transform="translate(72.972129, 197.999987)"><g><path d="M 11.84375 -3 L 12.984375 -1.109375 C 12.046875 -0.546875 11.238281 -0.15625 10.5625 0.0625 C 9.894531 0.28125 9.0625 0.390625 8.0625 0.390625 C 6.0625 0.390625 4.4375 -0.398438 3.1875 -1.984375 C 1.9375 -3.578125 1.3125 -5.394531 1.3125 -7.4375 C 1.3125 -9.695312 1.945312 -11.566406 3.21875 -13.046875 C 4.488281 -14.523438 6.234375 -15.265625 8.453125 -15.265625 C 9.992188 -15.265625 11.4375 -14.753906 12.78125 -13.734375 L 11.4375 -12 C 10.851562 -12.5 10.328125 -12.84375 9.859375 -13.03125 C 9.390625 -13.21875 8.789062 -13.3125 8.0625 -13.3125 C 6.769531 -13.3125 5.765625 -12.722656 5.046875 -11.546875 C 4.335938 -10.367188 3.984375 -9.085938 3.984375 -7.703125 C 3.984375 -6.785156 4.117188 -5.890625 4.390625 -5.015625 C 4.660156 -4.148438 5.128906 -3.378906 5.796875 -2.703125 C 6.472656 -2.023438 7.28125 -1.6875 8.21875 -1.6875 C 8.9375 -1.6875 9.546875 -1.785156 10.046875 -1.984375 C 10.546875 -2.179688 11.144531 -2.519531 11.84375 -3 Z M 11.84375 -3 "/></g></g></g><g fill="#ef225c" fill-opacity="1"><g transform="translate(86.472117, 197.999987)"><g><path d="M 13.984375 0 L 11.015625 0 L 4.921875 -8.09375 L 4.921875 0 L 2.4375 0 L 2.4375 -21.09375 C 2.4375 -21.113281 2.40625 -21.257812 2.34375 -21.53125 C 2.28125 -21.800781 2.210938 -22.078125 2.140625 -22.359375 C 2.078125 -22.648438 2.046875 -22.816406 2.046875 -22.859375 L 4.921875 -22.859375 L 4.921875 -8.765625 L 10.5 -14.90625 L 13.171875 -14.90625 L 7.4375 -8.640625 Z M 13.984375 0 "/></g></g></g><g fill="#ef225c" fill-opacity="1"><g transform="translate(100.422098, 197.999987)"><g><path d="M 5.546875 -19.921875 C 5.546875 -19.398438 5.367188 -18.960938 5.015625 -18.609375 C 4.671875 -18.265625 4.238281 -18.09375 3.71875 -18.09375 C 3.21875 -18.09375 2.789062 -18.269531 2.4375 -18.625 C 2.09375 -18.988281 1.921875 -19.421875 1.921875 -19.921875 C 1.921875 -20.421875 2.09375 -20.847656 2.4375 -21.203125 C 2.789062 -21.566406 3.21875 -21.75 3.71875 -21.75 C 4.21875 -21.75 4.644531 -21.566406 5 -21.203125 C 5.363281 -20.847656 5.546875 -20.421875 5.546875 -19.921875 Z M 5.015625 0 L 2.515625 0 L 2.515625 -13.140625 C 2.515625 -13.160156 2.484375 -13.304688 2.421875 -13.578125 C 2.367188 -13.847656 2.3125 -14.125 2.25 -14.40625 C 2.1875 -14.695312 2.15625 -14.863281 2.15625 -14.90625 L 5.015625 -14.90625 Z M 5.015625 0 "/></g></g></g><g fill="#ef225c" fill-opacity="1"><g transform="translate(107.952092, 197.999987)"><g><path d="M 13.921875 0 L 11.453125 0 L 11.453125 -9.15625 C 11.453125 -9.613281 11.441406 -9.988281 11.421875 -10.28125 C 11.410156 -10.582031 11.359375 -10.921875 11.265625 -11.296875 C 11.171875 -11.679688 11.039062 -11.988281 10.875 -12.21875 C 10.707031 -12.445312 10.457031 -12.640625 10.125 -12.796875 C 9.789062 -12.960938 9.394531 -13.046875 8.9375 -13.046875 C 7.613281 -13.046875 6.253906 -12.382812 4.859375 -11.0625 L 4.859375 0 L 2.40625 0 L 2.40625 -10.5625 C 2.40625 -12.476562 2.070312 -13.890625 1.40625 -14.796875 L 4.140625 -15.15625 C 4.441406 -14.394531 4.628906 -13.679688 4.703125 -13.015625 C 6.203125 -14.515625 7.753906 -15.265625 9.359375 -15.265625 C 10.941406 -15.265625 12.097656 -14.789062 12.828125 -13.84375 C 13.554688 -12.894531 13.921875 -11.597656 13.921875 -9.953125 Z M 13.921875 0 "/></g></g></g><g fill="#ef225c" fill-opacity="1"><g transform="translate(124.362072, 197.999987)"><g><path d="M 14.125 -13.140625 L 10.921875 -13.140625 C 11.578125 -12.273438 11.90625 -11.265625 11.90625 -10.109375 C 11.90625 -8.671875 11.382812 -7.445312 10.34375 -6.4375 C 9.3125 -5.425781 8.070312 -4.921875 6.625 -4.921875 C 6.488281 -4.921875 6.296875 -4.941406 6.046875 -4.984375 C 5.796875 -5.023438 5.609375 -5.046875 5.484375 -5.046875 C 5.203125 -5.046875 4.929688 -4.847656 4.671875 -4.453125 C 4.421875 -4.066406 4.296875 -3.710938 4.296875 -3.390625 C 4.296875 -3.046875 4.398438 -2.785156 4.609375 -2.609375 C 4.816406 -2.429688 5.023438 -2.332031 5.234375 -2.3125 C 5.441406 -2.289062 5.738281 -2.28125 6.125 -2.28125 C 6.4375 -2.28125 6.921875 -2.296875 7.578125 -2.328125 C 8.242188 -2.359375 8.726562 -2.375 9.03125 -2.375 C 12.144531 -2.375 13.703125 -1.320312 13.703125 0.78125 C 13.703125 2.84375 12.945312 4.378906 11.4375 5.390625 C 9.9375 6.398438 8.125 6.90625 6 6.90625 C 4.632812 6.90625 3.394531 6.59375 2.28125 5.96875 C 1.175781 5.351562 0.625 4.40625 0.625 3.125 C 0.625 1.820312 1.394531 0.640625 2.9375 -0.421875 C 2.019531 -0.878906 1.5625 -1.609375 1.5625 -2.609375 C 1.5625 -2.671875 1.679688 -2.878906 1.921875 -3.234375 C 2.742188 -4.359375 3.3125 -5.21875 3.625 -5.8125 C 2.90625 -6.300781 2.335938 -6.921875 1.921875 -7.671875 C 1.515625 -8.429688 1.3125 -9.234375 1.3125 -10.078125 C 1.3125 -11.515625 1.832031 -12.738281 2.875 -13.75 C 3.914062 -14.757812 5.15625 -15.265625 6.59375 -15.265625 C 6.976562 -15.265625 7.535156 -15.191406 8.265625 -15.046875 C 8.992188 -14.910156 9.539062 -14.84375 9.90625 -14.84375 C 10.90625 -14.84375 12.492188 -14.992188 14.671875 -15.296875 Z M 6.59375 -6.71875 C 7.332031 -6.71875 7.96875 -7.039062 8.5 -7.6875 C 9.03125 -8.34375 9.296875 -9.140625 9.296875 -10.078125 C 9.296875 -11.015625 9.03125 -11.8125 8.5 -12.46875 C 7.96875 -13.132812 7.34375 -13.46875 6.625 -13.46875 C 5.882812 -13.46875 5.25 -13.140625 4.71875 -12.484375 C 4.195312 -11.835938 3.9375 -11.046875 3.9375 -10.109375 C 3.9375 -9.171875 4.195312 -8.367188 4.71875 -7.703125 C 5.25 -7.046875 5.875 -6.71875 6.59375 -6.71875 Z M 4.734375 0.09375 C 4.316406 0.394531 3.957031 0.78125 3.65625 1.25 C 3.351562 1.71875 3.203125 2.171875 3.203125 2.609375 C 3.203125 3.285156 3.550781 3.828125 4.25 4.234375 C 4.957031 4.648438 5.691406 4.859375 6.453125 4.859375 C 7.734375 4.859375 8.878906 4.597656 9.890625 4.078125 C 10.898438 3.554688 11.40625 2.75 11.40625 1.65625 C 11.40625 1.289062 11.3125 0.988281 11.125 0.75 C 10.945312 0.507812 10.6875 0.335938 10.34375 0.234375 C 10.007812 0.140625 9.695312 0.078125 9.40625 0.046875 C 9.113281 0.015625 8.757812 0 8.34375 0 C 7.144531 0 5.941406 0.03125 4.734375 0.09375 Z M 4.734375 0.09375 "/></g></g></g><g fill="#ef225c" fill-opacity="1"><g transform="translate(145.602053, 197.999987)"><g><path d="M 13.984375 0 L 11.515625 0 L 11.515625 -9.1875 C 11.515625 -9.757812 11.492188 -10.222656 11.453125 -10.578125 C 11.421875 -10.941406 11.328125 -11.335938 11.171875 -11.765625 C 11.023438 -12.203125 10.769531 -12.53125 10.40625 -12.75 C 10.050781 -12.96875 9.59375 -13.078125 9.03125 -13.078125 C 7.875 -13.078125 6.503906 -12.414062 4.921875 -11.09375 L 4.921875 0 L 2.453125 0 L 2.453125 -21.09375 C 2.453125 -21.113281 2.421875 -21.257812 2.359375 -21.53125 C 2.304688 -21.800781 2.242188 -22.078125 2.171875 -22.359375 C 2.097656 -22.648438 2.0625 -22.816406 2.0625 -22.859375 L 4.921875 -22.859375 L 4.921875 -13.140625 C 6.441406 -14.578125 7.953125 -15.296875 9.453125 -15.296875 C 12.472656 -15.296875 13.984375 -13.523438 13.984375 -9.984375 Z M 13.984375 0 "/></g></g></g><g fill="#ef225c" fill-opacity="1"><g transform="translate(162.012032, 197.999987)"><g><path d="M 12.1875 -3.09375 L 13.296875 -1.296875 C 11.910156 -0.171875 10.226562 0.390625 8.25 0.390625 C 6.09375 0.390625 4.394531 -0.332031 3.15625 -1.78125 C 1.925781 -3.226562 1.3125 -5.066406 1.3125 -7.296875 C 1.3125 -8.648438 1.535156 -9.914062 1.984375 -11.09375 C 2.441406 -12.28125 3.175781 -13.269531 4.1875 -14.0625 C 5.195312 -14.863281 6.398438 -15.265625 7.796875 -15.265625 C 9.535156 -15.265625 10.9375 -14.75 12 -13.71875 C 13.0625 -12.695312 13.59375 -11.320312 13.59375 -9.59375 C 13.59375 -8.320312 13.082031 -7.6875 12.0625 -7.6875 L 3.953125 -7.6875 L 3.953125 -7.375 C 3.953125 -5.9375 4.335938 -4.628906 5.109375 -3.453125 C 5.878906 -2.285156 6.945312 -1.703125 8.3125 -1.703125 C 8.96875 -1.703125 9.65625 -1.828125 10.375 -2.078125 C 11.09375 -2.328125 11.695312 -2.664062 12.1875 -3.09375 Z M 4.140625 -9.546875 L 10.40625 -9.546875 C 10.625 -9.546875 10.765625 -9.585938 10.828125 -9.671875 C 10.890625 -9.765625 10.921875 -9.929688 10.921875 -10.171875 C 10.921875 -11.066406 10.660156 -11.820312 10.140625 -12.4375 C 9.617188 -13.0625 8.921875 -13.375 8.046875 -13.375 C 7.078125 -13.375 6.226562 -12.984375 5.5 -12.203125 C 4.769531 -11.429688 4.316406 -10.546875 4.140625 -9.546875 Z M 4.140625 -9.546875 "/></g></g></g><g fill="#ef225c" fill-opacity="1"><g transform="translate(176.832016, 197.999987)"><g><path d="M 14.4375 -2.1875 L 14.9375 -0.625 C 14.800781 -0.570312 14.578125 -0.476562 14.265625 -0.34375 C 13.953125 -0.21875 13.703125 -0.117188 13.515625 -0.046875 C 13.328125 0.0234375 13.09375 0.09375 12.8125 0.15625 C 12.53125 0.226562 12.28125 0.265625 12.0625 0.265625 C 11.476562 0.265625 11 0.078125 10.625 -0.296875 C 10.257812 -0.679688 10.03125 -1.171875 9.9375 -1.765625 C 8.59375 -0.367188 7.09375 0.328125 5.4375 0.328125 C 4.226562 0.328125 3.238281 -0.0234375 2.46875 -0.734375 C 1.695312 -1.441406 1.3125 -2.394531 1.3125 -3.59375 C 1.3125 -6.976562 4.164062 -8.691406 9.875 -8.734375 L 9.875 -10.3125 C 9.875 -12.3125 9.039062 -13.3125 7.375 -13.3125 C 6.59375 -13.3125 5.800781 -13.148438 5 -12.828125 C 4.207031 -12.515625 3.570312 -12.085938 3.09375 -11.546875 L 1.859375 -13.3125 C 3.484375 -14.613281 5.394531 -15.265625 7.59375 -15.265625 C 9.15625 -15.265625 10.335938 -14.835938 11.140625 -13.984375 C 11.953125 -13.140625 12.359375 -11.925781 12.359375 -10.34375 L 12.359375 -2.90625 C 12.359375 -2.507812 12.398438 -2.21875 12.484375 -2.03125 C 12.578125 -1.851562 12.753906 -1.765625 13.015625 -1.765625 C 13.253906 -1.765625 13.726562 -1.90625 14.4375 -2.1875 Z M 9.875 -5.8125 L 9.875 -6.78125 C 9.132812 -6.78125 8.5 -6.753906 7.96875 -6.703125 C 7.4375 -6.648438 6.816406 -6.535156 6.109375 -6.359375 C 5.398438 -6.179688 4.847656 -5.863281 4.453125 -5.40625 C 4.066406 -4.957031 3.875 -4.382812 3.875 -3.6875 C 3.875 -3.050781 4.085938 -2.570312 4.515625 -2.25 C 4.941406 -1.925781 5.515625 -1.765625 6.234375 -1.765625 C 7.253906 -1.765625 8.113281 -2.179688 8.8125 -3.015625 C 9.519531 -3.847656 9.875 -4.78125 9.875 -5.8125 Z M 9.875 -5.8125 "/></g></g></g><g fill="#ef225c" fill-opacity="1"><g transform="translate(191.651999, 197.999987)"><g><path d="M 5.015625 0 L 2.515625 0 L 2.515625 -21.125 C 2.515625 -21.144531 2.484375 -21.285156 2.421875 -21.546875 C 2.367188 -21.804688 2.304688 -22.078125 2.234375 -22.359375 C 2.160156 -22.648438 2.125 -22.816406 2.125 -22.859375 L 5.015625 -22.859375 Z M 5.015625 0 "/></g></g></g><g fill="#ef225c" fill-opacity="1"><g transform="translate(199.181994, 197.999987)"><g><path d="M 8.796875 -1.890625 L 9.203125 -0.203125 C 8.023438 0.148438 7.035156 0.328125 6.234375 0.328125 C 5.015625 0.328125 4.140625 0.00390625 3.609375 -0.640625 C 3.078125 -1.296875 2.8125 -2.265625 2.8125 -3.546875 L 2.8125 -13.015625 L 0.59375 -13.015625 L 0.59375 -14.515625 C 2.332031 -14.554688 3.492188 -16.109375 4.078125 -19.171875 L 5.96875 -19.171875 C 5.53125 -17.367188 5.3125 -15.945312 5.3125 -14.90625 L 9.203125 -14.90625 L 8.671875 -13.015625 L 5.3125 -13.015625 L 5.3125 -3.484375 C 5.3125 -2.835938 5.425781 -2.359375 5.65625 -2.046875 C 5.882812 -1.742188 6.300781 -1.59375 6.90625 -1.59375 C 7.363281 -1.59375 7.992188 -1.691406 8.796875 -1.890625 Z M 8.796875 -1.890625 "/></g></g></g><g fill="#ef225c" fill-opacity="1"><g transform="translate(208.991994, 197.999987)"><g><path d="M 13.984375 0 L 11.515625 0 L 11.515625 -9.1875 C 11.515625 -9.757812 11.492188 -10.222656 11.453125 -10.578125 C 11.421875 -10.941406 11.328125 -11.335938 11.171875 -11.765625 C 11.023438 -12.203125 10.769531 -12.53125 10.40625 -12.75 C 10.050781 -12.96875 9.59375 -13.078125 9.03125 -13.078125 C 7.875 -13.078125 6.503906 -12.414062 4.921875 -11.09375 L 4.921875 0 L 2.453125 0 L 2.453125 -21.09375 C 2.453125 -21.113281 2.421875 -21.257812 2.359375 -21.53125 C 2.304688 -21.800781 2.242188 -22.078125 2.171875 -22.359375 C 2.097656 -22.648438 2.0625 -22.816406 2.0625 -22.859375 L 4.921875 -22.859375 L 4.921875 -13.140625 C 6.441406 -14.578125 7.953125 -15.296875 9.453125 -15.296875 C 12.472656 -15.296875 13.984375 -13.523438 13.984375 -9.984375 Z M 13.984375 0 "/></g></g></g><g fill="#ef225c" fill-opacity="1"><g transform="translate(225.401974, 197.999987)"><g><path d="M 11.84375 -3 L 12.984375 -1.109375 C 12.046875 -0.546875 11.238281 -0.15625 10.5625 0.0625 C 9.894531 0.28125 9.0625 0.390625 8.0625 0.390625 C 6.0625 0.390625 4.4375 -0.398438 3.1875 -1.984375 C 1.9375 -3.578125 1.3125 -5.394531 1.3125 -7.4375 C 1.3125 -9.695312 1.945312 -11.566406 3.21875 -13.046875 C 4.488281 -14.523438 6.234375 -15.265625 8.453125 -15.265625 C 9.992188 -15.265625 11.4375 -14.753906 12.78125 -13.734375 L 11.4375 -12 C 10.851562 -12.5 10.328125 -12.84375 9.859375 -13.03125 C 9.390625 -13.21875 8.789062 -13.3125 8.0625 -13.3125 C 6.769531 -13.3125 5.765625 -12.722656 5.046875 -11.546875 C 4.335938 -10.367188 3.984375 -9.085938 3.984375 -7.703125 C 3.984375 -6.785156 4.117188 -5.890625 4.390625 -5.015625 C 4.660156 -4.148438 5.128906 -3.378906 5.796875 -2.703125 C 6.472656 -2.023438 7.28125 -1.6875 8.21875 -1.6875 C 8.9375 -1.6875 9.546875 -1.785156 10.046875 -1.984375 C 10.546875 -2.179688 11.144531 -2.519531 11.84375 -3 Z M 11.84375 -3 "/></g></g></g><g fill="#ef225c" fill-opacity="1"><g transform="translate(238.90195, 197.999987)"><g><path d="M 14.4375 -2.1875 L 14.9375 -0.625 C 14.800781 -0.570312 14.578125 -0.476562 14.265625 -0.34375 C 13.953125 -0.21875 13.703125 -0.117188 13.515625 -0.046875 C 13.328125 0.0234375 13.09375 0.09375 12.8125 0.15625 C 12.53125 0.226562 12.28125 0.265625 12.0625 0.265625 C 11.476562 0.265625 11 0.078125 10.625 -0.296875 C 10.257812 -0.679688 10.03125 -1.171875 9.9375 -1.765625 C 8.59375 -0.367188 7.09375 0.328125 5.4375 0.328125 C 4.226562 0.328125 3.238281 -0.0234375 2.46875 -0.734375 C 1.695312 -1.441406 1.3125 -2.394531 1.3125 -3.59375 C 1.3125 -6.976562 4.164062 -8.691406 9.875 -8.734375 L 9.875 -10.3125 C 9.875 -12.3125 9.039062 -13.3125 7.375 -13.3125 C 6.59375 -13.3125 5.800781 -13.148438 5 -12.828125 C 4.207031 -12.515625 3.570312 -12.085938 3.09375 -11.546875 L 1.859375 -13.3125 C 3.484375 -14.613281 5.394531 -15.265625 7.59375 -15.265625 C 9.15625 -15.265625 10.335938 -14.835938 11.140625 -13.984375 C 11.953125 -13.140625 12.359375 -11.925781 12.359375 -10.34375 L 12.359375 -2.90625 C 12.359375 -2.507812 12.398438 -2.21875 12.484375 -2.03125 C 12.578125 -1.851562 12.753906 -1.765625 13.015625 -1.765625 C 13.253906 -1.765625 13.726562 -1.90625 14.4375 -2.1875 Z M 9.875 -5.8125 L 9.875 -6.78125 C 9.132812 -6.78125 8.5 -6.753906 7.96875 -6.703125 C 7.4375 -6.648438 6.816406 -6.535156 6.109375 -6.359375 C 5.398438 -6.179688 4.847656 -5.863281 4.453125 -5.40625 C 4.066406 -4.957031 3.875 -4.382812 3.875 -3.6875 C 3.875 -3.050781 4.085938 -2.570312 4.515625 -2.25 C 4.941406 -1.925781 5.515625 -1.765625 6.234375 -1.765625 C 7.253906 -1.765625 8.113281 -2.179688 8.8125 -3.015625 C 9.519531 -3.847656 9.875 -4.78125 9.875 -5.8125 Z M 9.875 -5.8125 "/></g></g></g><g fill="#ef225c" fill-opacity="1"><g transform="translate(253.721933, 197.999987)"><g><path d="M 4.921875 0 L 2.4375 0 L 2.4375 -10.796875 C 2.4375 -12.554688 2.113281 -13.90625 1.46875 -14.84375 L 4.171875 -15.1875 C 4.523438 -14.300781 4.753906 -13.367188 4.859375 -12.390625 C 5.398438 -13.234375 6.109375 -13.910156 6.984375 -14.421875 C 7.867188 -14.929688 8.789062 -15.1875 9.75 -15.1875 L 9.15625 -12.546875 C 7.53125 -12.546875 6.117188 -11.664062 4.921875 -9.90625 Z M 4.921875 0 "/></g></g></g><g fill="#ef225c" fill-opacity="1"><g transform="translate(264.191926, 197.999987)"><g><path d="M 12.1875 -3.09375 L 13.296875 -1.296875 C 11.910156 -0.171875 10.226562 0.390625 8.25 0.390625 C 6.09375 0.390625 4.394531 -0.332031 3.15625 -1.78125 C 1.925781 -3.226562 1.3125 -5.066406 1.3125 -7.296875 C 1.3125 -8.648438 1.535156 -9.914062 1.984375 -11.09375 C 2.441406 -12.28125 3.175781 -13.269531 4.1875 -14.0625 C 5.195312 -14.863281 6.398438 -15.265625 7.796875 -15.265625 C 9.535156 -15.265625 10.9375 -14.75 12 -13.71875 C 13.0625 -12.695312 13.59375 -11.320312 13.59375 -9.59375 C 13.59375 -8.320312 13.082031 -7.6875 12.0625 -7.6875 L 3.953125 -7.6875 L 3.953125 -7.375 C 3.953125 -5.9375 4.335938 -4.628906 5.109375 -3.453125 C 5.878906 -2.285156 6.945312 -1.703125 8.3125 -1.703125 C 8.96875 -1.703125 9.65625 -1.828125 10.375 -2.078125 C 11.09375 -2.328125 11.695312 -2.664062 12.1875 -3.09375 Z M 4.140625 -9.546875 L 10.40625 -9.546875 C 10.625 -9.546875 10.765625 -9.585938 10.828125 -9.671875 C 10.890625 -9.765625 10.921875 -9.929688 10.921875 -10.171875 C 10.921875 -11.066406 10.660156 -11.820312 10.140625 -12.4375 C 9.617188 -13.0625 8.921875 -13.375 8.046875 -13.375 C 7.078125 -13.375 6.226562 -12.984375 5.5 -12.203125 C 4.769531 -11.429688 4.316406 -10.546875 4.140625 -9.546875 Z M 4.140625 -9.546875 "/></g></g></g><g fill="#ef225c" fill-opacity="1"><g transform="translate(285.911895, 197.999987)"><g><path d="M 11.84375 -3 L 12.984375 -1.109375 C 12.046875 -0.546875 11.238281 -0.15625 10.5625 0.0625 C 9.894531 0.28125 9.0625 0.390625 8.0625 0.390625 C 6.0625 0.390625 4.4375 -0.398438 3.1875 -1.984375 C 1.9375 -3.578125 1.3125 -5.394531 1.3125 -7.4375 C 1.3125 -9.695312 1.945312 -11.566406 3.21875 -13.046875 C 4.488281 -14.523438 6.234375 -15.265625 8.453125 -15.265625 C 9.992188 -15.265625 11.4375 -14.753906 12.78125 -13.734375 L 11.4375 -12 C 10.851562 -12.5 10.328125 -12.84375 9.859375 -13.03125 C 9.390625 -13.21875 8.789062 -13.3125 8.0625 -13.3125 C 6.769531 -13.3125 5.765625 -12.722656 5.046875 -11.546875 C 4.335938 -10.367188 3.984375 -9.085938 3.984375 -7.703125 C 3.984375 -6.785156 4.117188 -5.890625 4.390625 -5.015625 C 4.660156 -4.148438 5.128906 -3.378906 5.796875 -2.703125 C 6.472656 -2.023438 7.28125 -1.6875 8.21875 -1.6875 C 8.9375 -1.6875 9.546875 -1.785156 10.046875 -1.984375 C 10.546875 -2.179688 11.144531 -2.519531 11.84375 -3 Z M 11.84375 -3 "/></g></g><g transform="translate(299.411894, 197.999987)"><g><path d="M 5.015625 0 L 2.515625 0 L 2.515625 -21.125 C 2.515625 -21.144531 2.484375 -21.285156 2.421875 -21.546875 C 2.367188 -21.804688 2.304688 -22.078125 2.234375 -22.359375 C 2.160156 -22.648438 2.125 -22.816406 2.125 -22.859375 L 5.015625 -22.859375 Z M 5.015625 0 "/></g></g></g><g fill="#ef225c" fill-opacity="1"><g transform="translate(306.941877, 197.999987)"><g><path d="M 14.4375 -2.1875 L 14.9375 -0.625 C 14.800781 -0.570312 14.578125 -0.476562 14.265625 -0.34375 C 13.953125 -0.21875 13.703125 -0.117188 13.515625 -0.046875 C 13.328125 0.0234375 13.09375 0.09375 12.8125 0.15625 C 12.53125 0.226562 12.28125 0.265625 12.0625 0.265625 C 11.476562 0.265625 11 0.078125 10.625 -0.296875 C 10.257812 -0.679688 10.03125 -1.171875 9.9375 -1.765625 C 8.59375 -0.367188 7.09375 0.328125 5.4375 0.328125 C 4.226562 0.328125 3.238281 -0.0234375 2.46875 -0.734375 C 1.695312 -1.441406 1.3125 -2.394531 1.3125 -3.59375 C 1.3125 -6.976562 4.164062 -8.691406 9.875 -8.734375 L 9.875 -10.3125 C 9.875 -12.3125 9.039062 -13.3125 7.375 -13.3125 C 6.59375 -13.3125 5.800781 -13.148438 5 -12.828125 C 4.207031 -12.515625 3.570312 -12.085938 3.09375 -11.546875 L 1.859375 -13.3125 C 3.484375 -14.613281 5.394531 -15.265625 7.59375 -15.265625 C 9.15625 -15.265625 10.335938 -14.835938 11.140625 -13.984375 C 11.953125 -13.140625 12.359375 -11.925781 12.359375 -10.34375 L 12.359375 -2.90625 C 12.359375 -2.507812 12.398438 -2.21875 12.484375 -2.03125 C 12.578125 -1.851562 12.753906 -1.765625 13.015625 -1.765625 C 13.253906 -1.765625 13.726562 -1.90625 14.4375 -2.1875 Z M 9.875 -5.8125 L 9.875 -6.78125 C 9.132812 -6.78125 8.5 -6.753906 7.96875 -6.703125 C 7.4375 -6.648438 6.816406 -6.535156 6.109375 -6.359375 C 5.398438 -6.179688 4.847656 -5.863281 4.453125 -5.40625 C 4.066406 -4.957031 3.875 -4.382812 3.875 -3.6875 C 3.875 -3.050781 4.085938 -2.570312 4.515625 -2.25 C 4.941406 -1.925781 5.515625 -1.765625 6.234375 -1.765625 C 7.253906 -1.765625 8.113281 -2.179688 8.8125 -3.015625 C 9.519531 -3.847656 9.875 -4.78125 9.875 -5.8125 Z M 9.875 -5.8125 "/></g></g></g><g fill="#ef225c" fill-opacity="1"><g transform="translate(321.76186, 197.999987)"><g><path d="M 4.921875 0 L 2.4375 0 L 2.4375 -10.796875 C 2.4375 -12.554688 2.113281 -13.90625 1.46875 -14.84375 L 4.171875 -15.1875 C 4.523438 -14.300781 4.753906 -13.367188 4.859375 -12.390625 C 5.398438 -13.234375 6.109375 -13.910156 6.984375 -14.421875 C 7.867188 -14.929688 8.789062 -15.1875 9.75 -15.1875 L 9.15625 -12.546875 C 7.53125 -12.546875 6.117188 -11.664062 4.921875 -9.90625 Z M 4.921875 0 "/></g></g></g><g fill="#ef225c" fill-opacity="1"><g transform="translate(332.231853, 197.999987)"><g><path d="M 5.546875 -19.921875 C 5.546875 -19.398438 5.367188 -18.960938 5.015625 -18.609375 C 4.671875 -18.265625 4.238281 -18.09375 3.71875 -18.09375 C 3.21875 -18.09375 2.789062 -18.269531 2.4375 -18.625 C 2.09375 -18.988281 1.921875 -19.421875 1.921875 -19.921875 C 1.921875 -20.421875 2.09375 -20.847656 2.4375 -21.203125 C 2.789062 -21.566406 3.21875 -21.75 3.71875 -21.75 C 4.21875 -21.75 4.644531 -21.566406 5 -21.203125 C 5.363281 -20.847656 5.546875 -20.421875 5.546875 -19.921875 Z M 5.015625 0 L 2.515625 0 L 2.515625 -13.140625 C 2.515625 -13.160156 2.484375 -13.304688 2.421875 -13.578125 C 2.367188 -13.847656 2.3125 -14.125 2.25 -14.40625 C 2.1875 -14.695312 2.15625 -14.863281 2.15625 -14.90625 L 5.015625 -14.90625 Z M 5.015625 0 "/></g></g></g><g fill="#ef225c" fill-opacity="1"><g transform="translate(339.761836, 197.999987)"><g><path d="M 8.796875 -1.890625 L 9.203125 -0.203125 C 8.023438 0.148438 7.035156 0.328125 6.234375 0.328125 C 5.015625 0.328125 4.140625 0.00390625 3.609375 -0.640625 C 3.078125 -1.296875 2.8125 -2.265625 2.8125 -3.546875 L 2.8125 -13.015625 L 0.59375 -13.015625 L 0.59375 -14.515625 C 2.332031 -14.554688 3.492188 -16.109375 4.078125 -19.171875 L 5.96875 -19.171875 C 5.53125 -17.367188 5.3125 -15.945312 5.3125 -14.90625 L 9.203125 -14.90625 L 8.671875 -13.015625 L 5.3125 -13.015625 L 5.3125 -3.484375 C 5.3125 -2.835938 5.425781 -2.359375 5.65625 -2.046875 C 5.882812 -1.742188 6.300781 -1.59375 6.90625 -1.59375 C 7.363281 -1.59375 7.992188 -1.691406 8.796875 -1.890625 Z M 8.796875 -1.890625 "/></g></g></g><g fill="#ef225c" fill-opacity="1"><g transform="translate(349.571825, 197.999987)"><g><path d="M 2.28125 6.515625 L 1.140625 6.515625 L 1.140625 4.5 L 1.46875 4.5 C 2.070312 4.5 2.613281 4.363281 3.09375 4.09375 C 3.570312 3.820312 3.984375 3.425781 4.328125 2.90625 C 4.679688 2.382812 4.960938 1.90625 5.171875 1.46875 C 5.378906 1.03125 5.59375 0.5 5.8125 -0.125 L 0.359375 -14.90625 L 3.0625 -14.90625 L 7.015625 -3.5625 L 10.984375 -14.90625 L 13.3125 -14.90625 L 8.046875 0.0625 C 6.503906 4.363281 4.582031 6.515625 2.28125 6.515625 Z M 2.28125 6.515625 "/></g></g></g></svg>